<svg xmlns="http://www.w3.org/2000/svg" viewBox="0 0 750 500"><g id="freepik--background-complete--inject-64"><path d="M474.93,66.23c7.19,0,128.17.8,135.78.56.54,0,.84-.82.29-1.09-4.79-2.38-10.23-1.9-15.21-3.58-2.93-1-4.73-2.9-6.76-5.1a14,14,0,0,0-6.3-4.11,13.26,13.26,0,0,0-6.85-.21c-2.46.58-4.59,2-6.93,2.87-5.81,2.2-11.46.11-15.61-4.19-3.42-3.54-6.78-6.89-11.44-8.8a15.16,15.16,0,0,0-12.12-.16c-4.43,2-7.48,6-11.65,8.48-4.94,2.89-10.85,2.21-16.3,3.08s-9.65,5.46-14.44,8.11a10.24,10.24,0,0,1-5.22,1.62c-1.07,0-2.12-.32-3.17-.45-1.65-.2-3.22-.16-4.32,1.22C474.41,64.81,474.46,66.23,474.93,66.23Z" style="fill:#ebebeb"></path><path d="M43.77,82.52c5.24,0,93.57.58,99.12.4.4,0,.62-.6.22-.8-3.5-1.73-7.47-1.38-11.11-2.61-2.14-.72-3.45-2.12-4.93-3.72a10.25,10.25,0,0,0-4.6-3,9.75,9.75,0,0,0-5-.16c-1.8.43-3.35,1.46-5.06,2.1-4.25,1.6-8.37.08-11.4-3.06-2.5-2.58-5-5-8.35-6.42a11.08,11.08,0,0,0-8.85-.12c-3.24,1.46-5.46,4.42-8.5,6.19-3.61,2.11-7.93,1.61-11.91,2.25s-7,4-10.54,5.92a7.42,7.42,0,0,1-3.81,1.18,22.72,22.72,0,0,1-2.32-.33c-1.2-.14-2.34-.11-3.15.89C43.38,81.48,43.42,82.52,43.77,82.52Z" style="fill:#ebebeb"></path><path d="M429.41,185.4c5.25,0,93.58.59,99.13.41a.43.43,0,0,0,.21-.8c-3.49-1.73-7.46-1.38-11.1-2.61-2.14-.72-3.45-2.12-4.94-3.72a10.2,10.2,0,0,0-4.6-3,9.64,9.64,0,0,0-5-.16c-1.79.43-3.35,1.46-5.06,2.1-4.24,1.6-8.36.08-11.39-3.06-2.5-2.59-5-5-8.36-6.42a11.05,11.05,0,0,0-8.84-.12c-3.24,1.46-5.47,4.42-8.51,6.19-3.61,2.11-7.92,1.61-11.91,2.25s-7,4-10.53,5.92a7.45,7.45,0,0,1-3.81,1.18,22.72,22.72,0,0,1-2.32-.33c-1.21-.14-2.35-.11-3.16.89C429,184.37,429.07,185.4,429.41,185.4Z" style="fill:#ebebeb"></path><path d="M238.87,133.65c5.25,0,93.58.58,99.13.4a.43.43,0,0,0,.22-.79c-3.5-1.73-7.47-1.39-11.11-2.61-2.14-.72-3.45-2.12-4.94-3.73a10.31,10.31,0,0,0-4.59-3,9.79,9.79,0,0,0-5-.15c-1.79.42-3.35,1.45-5.06,2.1-4.24,1.6-8.36.08-11.39-3.06-2.5-2.59-5-5-8.35-6.43a11.08,11.08,0,0,0-8.85-.12c-3.24,1.47-5.46,4.42-8.51,6.2-3.61,2.1-7.92,1.61-11.9,2.24s-7,4-10.54,5.93a7.55,7.55,0,0,1-3.81,1.18c-.78,0-1.55-.24-2.32-.33-1.2-.15-2.35-.12-3.16.89C238.49,132.61,238.53,133.65,238.87,133.65Z" style="fill:#ebebeb"></path><path d="M607,137.21c5.24,0,93.57.58,99.12.41.4,0,.62-.6.22-.8-3.5-1.73-7.47-1.38-11.1-2.61-2.14-.72-3.46-2.12-4.94-3.72a10.25,10.25,0,0,0-4.6-3,9.64,9.64,0,0,0-5-.16c-1.8.43-3.35,1.45-5.06,2.1-4.24,1.6-8.37.08-11.4-3.06-2.5-2.59-5-5-8.35-6.42a11.12,11.12,0,0,0-8.85-.13c-3.24,1.47-5.46,4.42-8.5,6.2-3.61,2.11-7.93,1.61-11.91,2.24s-7,4-10.54,5.93a7.49,7.49,0,0,1-3.81,1.18A22.72,22.72,0,0,1,610,135a3.17,3.17,0,0,0-3.15.89C606.6,136.17,606.64,137.21,607,137.21Z" style="fill:#ebebeb"></path><path d="M125.35,170.49c.1.3,139.22,0,137.46,0-.8,0,1.22-1.2.43-1.58-4.52-2.25-9.48-2.31-14.41-2.77a22.21,22.21,0,0,1-8.42-2c-2.62-1.37-4.26-3.76-6.12-6a26.15,26.15,0,0,0-23.75-9c-9.9,1.55-17.69,9.09-27.6,10.47-5.95.84-11.58-1.47-17.4-2.28a21.32,21.32,0,0,0-13.06,2.39c-3.14,1.55-6,2.87-9.59,3.11-2.72.19-5.46-.12-8.19-.15a18.32,18.32,0,0,0-12,4.82C122.21,167.89,120.81,170.49,125.35,170.49Z" style="fill:#ebebeb"></path><rect x="514.19" y="157.52" width="57.71" height="302.53" style="fill:#dbdbdb"></rect><rect x="523.15" y="167.34" width="11.22" height="11.55" style="fill:#ebebeb"></rect><rect x="537.5" y="167.34" width="11.22" height="11.55" style="fill:#ebebeb"></rect><rect x="523.15" y="186.96" width="11.22" height="11.55" style="fill:#ebebeb"></rect><rect x="537.5" y="186.96" width="11.22" height="11.55" style="fill:#ebebeb"></rect><rect x="523.15" y="206.57" width="11.22" height="11.55" style="fill:#ebebeb"></rect><rect x="537.5" y="206.57" width="11.22" height="11.55" style="fill:#ebebeb"></rect><rect x="523.15" y="226.18" width="11.22" height="11.55" style="fill:#ebebeb"></rect><rect x="537.5" y="226.18" width="11.22" height="11.55" style="fill:#ebebeb"></rect><rect x="523.15" y="245.79" width="11.22" height="11.55" style="fill:#ebebeb"></rect><rect x="537.5" y="245.79" width="11.22" height="11.55" style="fill:#ebebeb"></rect><rect x="523.15" y="265.4" width="11.22" height="11.55" style="fill:#ebebeb"></rect><rect x="537.5" y="265.4" width="11.22" height="11.55" style="fill:#ebebeb"></rect><rect x="523.15" y="285.02" width="11.22" height="11.55" style="fill:#ebebeb"></rect><rect x="537.5" y="285.02" width="11.22" height="11.55" style="fill:#ebebeb"></rect><rect x="523.15" y="304.63" width="11.22" height="11.55" style="fill:#ebebeb"></rect><rect x="537.5" y="304.63" width="11.22" height="11.55" style="fill:#ebebeb"></rect><rect x="523.15" y="324.24" width="11.22" height="11.55" style="fill:#ebebeb"></rect><rect x="537.5" y="324.24" width="11.22" height="11.55" style="fill:#ebebeb"></rect><rect x="523.15" y="343.85" width="11.22" height="11.55" style="fill:#ebebeb"></rect><rect x="537.5" y="343.85" width="11.22" height="11.55" style="fill:#ebebeb"></rect><rect x="523.15" y="363.46" width="11.22" height="11.55" style="fill:#ebebeb"></rect><rect x="537.5" y="363.46" width="11.22" height="11.55" style="fill:#ebebeb"></rect><rect x="523.15" y="383.08" width="11.22" height="11.55" style="fill:#ebebeb"></rect><rect x="537.5" y="383.08" width="11.22" height="11.55" style="fill:#ebebeb"></rect><rect x="523.15" y="402.69" width="11.22" height="11.55" style="fill:#ebebeb"></rect><rect x="537.5" y="402.69" width="11.22" height="11.55" style="fill:#ebebeb"></rect><rect x="523.15" y="422.3" width="11.22" height="11.55" style="fill:#ebebeb"></rect><rect x="551.73" y="422.3" width="11.22" height="11.55" transform="translate(1114.68 856.15) rotate(180)" style="fill:#ebebeb"></rect><rect x="551.73" y="402.69" width="11.22" height="11.55" transform="translate(1114.68 816.93) rotate(180)" style="fill:#ebebeb"></rect><rect x="551.73" y="383.08" width="11.22" height="11.55" transform="translate(1114.68 777.71) rotate(180)" style="fill:#ebebeb"></rect><rect x="551.73" y="363.46" width="11.22" height="11.55" transform="translate(1114.68 738.48) rotate(180)" style="fill:#ebebeb"></rect><rect x="551.73" y="343.85" width="11.22" height="11.55" transform="translate(1114.68 699.26) rotate(180)" style="fill:#ebebeb"></rect><rect x="551.73" y="324.24" width="11.22" height="11.55" transform="translate(1114.68 660.03) rotate(180)" style="fill:#ebebeb"></rect><rect x="551.73" y="304.63" width="11.22" height="11.55" transform="translate(1114.68 620.81) rotate(180)" style="fill:#ebebeb"></rect><rect x="551.73" y="285.02" width="11.22" height="11.55" transform="translate(1114.68 581.58) rotate(180)" style="fill:#ebebeb"></rect><rect x="551.73" y="265.4" width="11.22" height="11.55" transform="translate(1114.68 542.36) rotate(180)" style="fill:#ebebeb"></rect><rect x="551.73" y="245.79" width="11.22" height="11.55" transform="translate(1114.68 503.14) rotate(180)" style="fill:#ebebeb"></rect><rect x="551.73" y="226.18" width="11.22" height="11.55" transform="translate(1114.68 463.91) rotate(180)" style="fill:#ebebeb"></rect><rect x="551.73" y="206.57" width="11.22" height="11.55" transform="translate(1114.68 424.69) rotate(180)" style="fill:#ebebeb"></rect><rect x="551.73" y="186.96" width="11.22" height="11.55" transform="translate(1114.68 385.46) rotate(180)" style="fill:#ebebeb"></rect><rect x="551.73" y="167.34" width="11.22" height="11.55" transform="translate(1114.68 346.24) rotate(180)" style="fill:#ebebeb"></rect><rect x="537.5" y="422.3" width="11.22" height="11.55" style="fill:#ebebeb"></rect><rect x="571.91" y="157.52" width="45.5" height="302.53" style="fill:#a6a6a6"></rect><rect x="603.45" y="422.3" width="9.26" height="11.55" transform="translate(1216.17 856.15) rotate(180)" style="fill:#c7c7c7"></rect><rect x="591.6" y="422.3" width="9.26" height="11.55" transform="translate(1192.47 856.15) rotate(180)" style="fill:#c7c7c7"></rect><rect x="603.45" y="402.69" width="9.26" height="11.55" transform="translate(1216.17 816.93) rotate(180)" style="fill:#c7c7c7"></rect><rect x="591.6" y="402.69" width="9.26" height="11.55" transform="translate(1192.47 816.93) rotate(180)" style="fill:#c7c7c7"></rect><rect x="603.45" y="383.08" width="9.26" height="11.55" transform="translate(1216.17 777.71) rotate(180)" style="fill:#c7c7c7"></rect><rect x="591.6" y="383.08" width="9.26" height="11.55" transform="translate(1192.47 777.71) rotate(180)" style="fill:#c7c7c7"></rect><rect x="603.45" y="363.46" width="9.26" height="11.55" transform="translate(1216.17 738.48) rotate(180)" style="fill:#c7c7c7"></rect><rect x="591.6" y="363.46" width="9.26" height="11.55" transform="translate(1192.47 738.48) rotate(180)" style="fill:#c7c7c7"></rect><rect x="603.45" y="343.85" width="9.26" height="11.55" transform="translate(1216.17 699.26) rotate(180)" style="fill:#c7c7c7"></rect><rect x="591.6" y="343.85" width="9.26" height="11.55" transform="translate(1192.47 699.26) rotate(180)" style="fill:#c7c7c7"></rect><rect x="603.45" y="324.24" width="9.26" height="11.55" transform="translate(1216.17 660.03) rotate(180)" style="fill:#c7c7c7"></rect><rect x="591.6" y="324.24" width="9.26" height="11.55" transform="translate(1192.47 660.03) rotate(180)" style="fill:#c7c7c7"></rect><rect x="603.45" y="304.63" width="9.26" height="11.55" transform="translate(1216.17 620.81) rotate(180)" style="fill:#c7c7c7"></rect><rect x="591.6" y="304.63" width="9.26" height="11.55" transform="translate(1192.47 620.81) rotate(180)" style="fill:#c7c7c7"></rect><rect x="603.45" y="285.02" width="9.26" height="11.55" transform="translate(1216.17 581.58) rotate(180)" style="fill:#c7c7c7"></rect><rect x="591.6" y="285.02" width="9.26" height="11.55" transform="translate(1192.47 581.58) rotate(180)" style="fill:#c7c7c7"></rect><rect x="603.45" y="265.4" width="9.26" height="11.55" transform="translate(1216.17 542.36) rotate(180)" style="fill:#c7c7c7"></rect><rect x="591.6" y="265.4" width="9.26" height="11.55" transform="translate(1192.47 542.36) rotate(180)" style="fill:#c7c7c7"></rect><rect x="603.45" y="245.79" width="9.26" height="11.55" transform="translate(1216.17 503.14) rotate(180)" style="fill:#c7c7c7"></rect><rect x="591.6" y="245.79" width="9.26" height="11.55" transform="translate(1192.47 503.14) rotate(180)" style="fill:#c7c7c7"></rect><rect x="603.45" y="226.18" width="9.26" height="11.55" transform="translate(1216.17 463.91) rotate(180)" style="fill:#c7c7c7"></rect><rect x="591.6" y="226.18" width="9.26" height="11.55" transform="translate(1192.47 463.91) rotate(180)" style="fill:#c7c7c7"></rect><rect x="603.45" y="206.57" width="9.26" height="11.55" transform="translate(1216.17 424.69) rotate(180)" style="fill:#c7c7c7"></rect><rect x="591.6" y="206.57" width="9.26" height="11.55" transform="translate(1192.47 424.69) rotate(180)" style="fill:#c7c7c7"></rect><rect x="603.45" y="186.96" width="9.26" height="11.55" transform="translate(1216.17 385.46) rotate(180)" style="fill:#c7c7c7"></rect><rect x="591.6" y="186.96" width="9.26" height="11.55" transform="translate(1192.47 385.46) rotate(180)" style="fill:#c7c7c7"></rect><rect x="603.45" y="167.34" width="9.26" height="11.55" transform="translate(1216.17 346.24) rotate(180)" style="fill:#c7c7c7"></rect><rect x="579.85" y="167.34" width="9.26" height="11.55" style="fill:#c7c7c7"></rect><rect x="579.85" y="186.96" width="9.26" height="11.55" style="fill:#c7c7c7"></rect><rect x="579.85" y="206.57" width="9.26" height="11.55" style="fill:#c7c7c7"></rect><rect x="579.85" y="226.18" width="9.26" height="11.55" style="fill:#c7c7c7"></rect><rect x="579.85" y="245.79" width="9.26" height="11.55" style="fill:#c7c7c7"></rect><rect x="579.85" y="265.4" width="9.26" height="11.55" style="fill:#c7c7c7"></rect><rect x="579.85" y="285.02" width="9.26" height="11.55" style="fill:#c7c7c7"></rect><rect x="579.85" y="304.63" width="9.26" height="11.55" style="fill:#c7c7c7"></rect><rect x="579.85" y="324.24" width="9.26" height="11.55" style="fill:#c7c7c7"></rect><rect x="579.85" y="343.85" width="9.26" height="11.55" style="fill:#c7c7c7"></rect><rect x="579.85" y="363.46" width="9.26" height="11.55" style="fill:#c7c7c7"></rect><rect x="579.85" y="383.08" width="9.26" height="11.55" style="fill:#c7c7c7"></rect><rect x="579.85" y="402.69" width="9.26" height="11.55" style="fill:#c7c7c7"></rect><rect x="579.85" y="422.3" width="9.26" height="11.55" style="fill:#c7c7c7"></rect><rect x="591.6" y="167.34" width="9.26" height="11.55" transform="translate(1192.47 346.24) rotate(180)" style="fill:#c7c7c7"></rect><rect x="357.39" y="134.05" width="69.48" height="326" style="fill:#ebebeb"></rect><rect x="355.72" y="127.56" width="71.15" height="6.49" style="fill:#c7c7c7"></rect><rect x="363.68" y="143.62" width="7.04" height="316.43" style="fill:#fff"></rect><rect x="376.14" y="143.62" width="7.04" height="316.43" style="fill:#fff"></rect><rect x="388.61" y="143.62" width="7.04" height="316.43" style="fill:#fff"></rect><rect x="401.08" y="143.62" width="7.04" height="316.43" style="fill:#fff"></rect><rect x="413.55" y="143.62" width="7.04" height="316.43" style="fill:#fff"></rect><rect x="363.68" y="151.82" width="7.04" height="12.81" style="fill:#ebebeb"></rect><rect x="376.14" y="151.82" width="7.04" height="12.81" style="fill:#ebebeb"></rect><rect x="388.61" y="151.82" width="7.04" height="12.81" style="fill:#ebebeb"></rect><rect x="401.08" y="151.82" width="7.04" height="12.81" style="fill:#ebebeb"></rect><rect x="413.55" y="151.82" width="7.04" height="12.81" style="fill:#ebebeb"></rect><rect x="363.68" y="172.65" width="7.04" height="12.81" style="fill:#ebebeb"></rect><rect x="376.14" y="172.65" width="7.04" height="12.81" style="fill:#ebebeb"></rect><rect x="388.61" y="172.65" width="7.04" height="12.81" style="fill:#ebebeb"></rect><rect x="401.08" y="172.65" width="7.04" height="12.81" style="fill:#ebebeb"></rect><rect x="413.55" y="172.65" width="7.04" height="12.81" style="fill:#ebebeb"></rect><rect x="363.68" y="193.48" width="7.04" height="12.81" style="fill:#ebebeb"></rect><rect x="376.14" y="193.48" width="7.04" height="12.81" style="fill:#ebebeb"></rect><rect x="388.61" y="193.48" width="7.04" height="12.81" style="fill:#ebebeb"></rect><rect x="401.08" y="193.48" width="7.04" height="12.81" style="fill:#ebebeb"></rect><rect x="413.55" y="193.48" width="7.04" height="12.81" style="fill:#ebebeb"></rect><rect x="363.68" y="214.3" width="7.04" height="12.81" style="fill:#ebebeb"></rect><rect x="376.14" y="214.3" width="7.04" height="12.81" style="fill:#ebebeb"></rect><rect x="388.61" y="214.3" width="7.04" height="12.81" style="fill:#ebebeb"></rect><rect x="401.08" y="214.3" width="7.04" height="12.81" style="fill:#ebebeb"></rect><rect x="413.55" y="214.3" width="7.04" height="12.81" style="fill:#ebebeb"></rect><rect x="363.68" y="235.13" width="7.04" height="12.81" style="fill:#ebebeb"></rect><rect x="376.14" y="235.13" width="7.04" height="12.81" style="fill:#ebebeb"></rect><rect x="388.61" y="235.13" width="7.04" height="12.81" style="fill:#ebebeb"></rect><rect x="401.08" y="235.13" width="7.04" height="12.81" style="fill:#ebebeb"></rect><rect x="413.55" y="235.13" width="7.04" height="12.81" style="fill:#ebebeb"></rect><rect x="363.68" y="255.95" width="7.04" height="12.81" style="fill:#ebebeb"></rect><rect x="376.14" y="255.95" width="7.04" height="12.81" style="fill:#ebebeb"></rect><rect x="388.61" y="255.95" width="7.04" height="12.81" style="fill:#ebebeb"></rect><rect x="401.08" y="255.95" width="7.04" height="12.81" style="fill:#ebebeb"></rect><rect x="413.55" y="255.95" width="7.04" height="12.81" style="fill:#ebebeb"></rect><rect x="363.68" y="276.78" width="7.04" height="12.81" style="fill:#ebebeb"></rect><rect x="376.14" y="276.78" width="7.04" height="12.81" style="fill:#ebebeb"></rect><rect x="388.61" y="276.78" width="7.04" height="12.81" style="fill:#ebebeb"></rect><rect x="401.08" y="276.78" width="7.04" height="12.81" style="fill:#ebebeb"></rect><rect x="413.55" y="276.78" width="7.04" height="12.81" style="fill:#ebebeb"></rect><rect x="363.68" y="297.61" width="7.04" height="12.81" style="fill:#ebebeb"></rect><rect x="376.14" y="297.61" width="7.04" height="12.81" style="fill:#ebebeb"></rect><rect x="388.61" y="297.61" width="7.04" height="12.81" style="fill:#ebebeb"></rect><rect x="401.08" y="297.61" width="7.04" height="12.81" style="fill:#ebebeb"></rect><rect x="413.55" y="297.61" width="7.04" height="12.81" style="fill:#ebebeb"></rect><rect x="363.68" y="318.43" width="7.04" height="12.81" style="fill:#ebebeb"></rect><rect x="376.14" y="318.43" width="7.04" height="12.81" style="fill:#ebebeb"></rect><rect x="388.61" y="318.43" width="7.04" height="12.81" style="fill:#ebebeb"></rect><rect x="401.08" y="318.43" width="7.04" height="12.81" style="fill:#ebebeb"></rect><rect x="413.55" y="318.43" width="7.04" height="12.81" style="fill:#ebebeb"></rect><rect x="363.68" y="339.26" width="7.04" height="12.81" style="fill:#ebebeb"></rect><rect x="376.14" y="339.26" width="7.04" height="12.81" style="fill:#ebebeb"></rect><rect x="388.61" y="339.26" width="7.04" height="12.81" style="fill:#ebebeb"></rect><rect x="401.08" y="339.26" width="7.04" height="12.81" style="fill:#ebebeb"></rect><rect x="413.55" y="339.26" width="7.04" height="12.81" style="fill:#ebebeb"></rect><rect x="363.68" y="360.09" width="7.04" height="12.81" style="fill:#ebebeb"></rect><rect x="376.14" y="360.09" width="7.04" height="12.81" style="fill:#ebebeb"></rect><rect x="388.61" y="360.09" width="7.04" height="12.81" style="fill:#ebebeb"></rect><rect x="401.08" y="360.09" width="7.04" height="12.81" style="fill:#ebebeb"></rect><rect x="413.55" y="360.09" width="7.04" height="12.81" style="fill:#ebebeb"></rect><rect x="363.68" y="380.91" width="7.04" height="12.81" style="fill:#ebebeb"></rect><rect x="376.14" y="380.91" width="7.04" height="12.81" style="fill:#ebebeb"></rect><rect x="388.61" y="380.91" width="7.04" height="12.81" style="fill:#ebebeb"></rect><rect x="401.08" y="380.91" width="7.04" height="12.81" style="fill:#ebebeb"></rect><rect x="413.55" y="380.91" width="7.04" height="12.81" style="fill:#ebebeb"></rect><rect x="363.68" y="401.74" width="7.04" height="12.81" style="fill:#ebebeb"></rect><rect x="376.14" y="401.74" width="7.04" height="12.81" style="fill:#ebebeb"></rect><rect x="388.61" y="401.74" width="7.04" height="12.81" style="fill:#ebebeb"></rect><rect x="401.08" y="401.74" width="7.04" height="12.81" style="fill:#ebebeb"></rect><rect x="413.55" y="401.74" width="7.04" height="12.81" style="fill:#ebebeb"></rect><rect x="363.68" y="422.57" width="7.04" height="37.48" style="fill:#ebebeb"></rect><rect x="376.14" y="422.57" width="7.04" height="37.48" style="fill:#ebebeb"></rect><rect x="388.61" y="422.57" width="7.04" height="37.48" style="fill:#ebebeb"></rect><rect x="401.08" y="422.57" width="7.04" height="37.48" style="fill:#ebebeb"></rect><rect x="413.55" y="422.57" width="7.04" height="37.48" style="fill:#ebebeb"></rect><rect x="426.87" y="134.05" width="44.6" height="326" style="fill:#dbdbdb"></rect><rect x="426.87" y="127.56" width="46.53" height="6.49" style="fill:#c7c7c7"></rect><rect x="433.15" y="143.62" width="7.04" height="316.43" style="fill:#c7c7c7"></rect><rect x="445.62" y="143.62" width="7.04" height="316.43" style="fill:#c7c7c7"></rect><rect x="458.09" y="143.62" width="7.04" height="316.43" style="fill:#c7c7c7"></rect><rect x="433.15" y="151.82" width="7.04" height="12.81" style="fill:#dbdbdb"></rect><rect x="445.62" y="151.82" width="7.04" height="12.81" style="fill:#dbdbdb"></rect><rect x="458.09" y="151.82" width="7.04" height="12.81" style="fill:#dbdbdb"></rect><rect x="433.15" y="172.65" width="7.04" height="12.81" style="fill:#dbdbdb"></rect><rect x="445.62" y="172.65" width="7.04" height="12.81" style="fill:#dbdbdb"></rect><rect x="458.09" y="172.65" width="7.04" height="12.81" style="fill:#dbdbdb"></rect><rect x="433.15" y="193.48" width="7.04" height="12.81" style="fill:#dbdbdb"></rect><rect x="445.62" y="193.48" width="7.04" height="12.81" style="fill:#dbdbdb"></rect><rect x="458.09" y="193.48" width="7.04" height="12.81" style="fill:#dbdbdb"></rect><rect x="433.15" y="214.3" width="7.04" height="12.81" style="fill:#dbdbdb"></rect><rect x="445.62" y="214.3" width="7.04" height="12.81" style="fill:#dbdbdb"></rect><rect x="458.09" y="214.3" width="7.04" height="12.81" style="fill:#dbdbdb"></rect><rect x="433.15" y="235.13" width="7.04" height="12.81" style="fill:#dbdbdb"></rect><rect x="445.62" y="235.13" width="7.04" height="12.81" style="fill:#dbdbdb"></rect><rect x="458.09" y="235.13" width="7.04" height="12.81" style="fill:#dbdbdb"></rect><rect x="433.15" y="255.95" width="7.04" height="12.81" style="fill:#dbdbdb"></rect><rect x="445.62" y="255.95" width="7.04" height="12.81" style="fill:#dbdbdb"></rect><rect x="458.09" y="255.95" width="7.04" height="12.81" style="fill:#dbdbdb"></rect><rect x="433.15" y="276.78" width="7.04" height="12.81" style="fill:#dbdbdb"></rect><rect x="445.62" y="276.78" width="7.04" height="12.81" style="fill:#dbdbdb"></rect><rect x="458.09" y="276.78" width="7.04" height="12.81" style="fill:#dbdbdb"></rect><rect x="433.15" y="297.61" width="7.04" height="12.81" style="fill:#dbdbdb"></rect><rect x="445.62" y="297.61" width="7.04" height="12.81" style="fill:#dbdbdb"></rect><rect x="458.09" y="297.61" width="7.04" height="12.81" style="fill:#dbdbdb"></rect><rect x="433.15" y="318.43" width="7.04" height="12.81" style="fill:#dbdbdb"></rect><rect x="445.62" y="318.43" width="7.04" height="12.81" style="fill:#dbdbdb"></rect><rect x="458.09" y="318.43" width="7.04" height="12.81" style="fill:#dbdbdb"></rect><rect x="433.15" y="339.26" width="7.04" height="12.81" style="fill:#dbdbdb"></rect><rect x="445.62" y="339.26" width="7.04" height="12.81" style="fill:#dbdbdb"></rect><rect x="458.09" y="339.26" width="7.04" height="12.81" style="fill:#dbdbdb"></rect><rect x="433.15" y="360.09" width="7.04" height="12.81" style="fill:#dbdbdb"></rect><rect x="445.62" y="360.09" width="7.04" height="12.81" style="fill:#dbdbdb"></rect><rect x="458.09" y="360.09" width="7.04" height="12.81" style="fill:#dbdbdb"></rect><rect x="433.15" y="380.91" width="7.04" height="12.81" style="fill:#dbdbdb"></rect><rect x="445.62" y="380.91" width="7.04" height="12.81" style="fill:#dbdbdb"></rect><rect x="458.09" y="380.91" width="7.04" height="12.81" style="fill:#dbdbdb"></rect><rect x="433.15" y="401.74" width="7.04" height="12.81" style="fill:#dbdbdb"></rect><rect x="445.62" y="401.74" width="7.04" height="12.81" style="fill:#dbdbdb"></rect><rect x="458.09" y="401.74" width="7.04" height="12.81" style="fill:#dbdbdb"></rect><rect x="433.15" y="422.57" width="7.04" height="37.48" style="fill:#dbdbdb"></rect><rect x="445.62" y="422.57" width="7.04" height="37.48" style="fill:#dbdbdb"></rect><rect x="458.09" y="422.57" width="7.04" height="37.48" style="fill:#dbdbdb"></rect><rect x="51.69" y="243.5" width="57.1" height="216.55" style="fill:#ebebeb"></rect><rect x="59.81" y="229.14" width="48.98" height="14.36" style="fill:#c7c7c7"></rect><rect x="57.95" y="251" width="44.58" height="161.88" style="fill:#dbdbdb"></rect><rect x="57.95" y="266.45" width="44.58" height="3.83" style="fill:#fff"></rect><rect x="57.95" y="282.29" width="44.58" height="3.83" style="fill:#fff"></rect><rect x="57.95" y="298.14" width="44.58" height="3.83" style="fill:#fff"></rect><rect x="57.95" y="313.98" width="44.58" height="3.83" style="fill:#fff"></rect><rect x="57.95" y="329.83" width="44.58" height="3.83" style="fill:#fff"></rect><rect x="57.95" y="345.67" width="44.58" height="3.83" style="fill:#fff"></rect><rect x="57.95" y="361.52" width="44.58" height="3.83" style="fill:#fff"></rect><rect x="57.95" y="377.36" width="44.58" height="3.83" style="fill:#fff"></rect><rect x="57.95" y="393.21" width="44.58" height="3.83" style="fill:#fff"></rect><rect x="57.95" y="409.06" width="44.58" height="3.83" style="fill:#fff"></rect><rect x="108.79" y="243.5" width="35.76" height="216.55" style="fill:#dbdbdb"></rect><rect x="108.79" y="229.14" width="30.4" height="14.36" style="fill:#a6a6a6"></rect><rect x="113.72" y="251" width="27.5" height="161.88" style="fill:#c7c7c7"></rect><rect x="113.72" y="266.45" width="27.5" height="3.83" style="fill:#fff"></rect><rect x="113.72" y="282.29" width="27.5" height="3.83" style="fill:#fff"></rect><rect x="113.72" y="298.14" width="27.5" height="3.83" style="fill:#fff"></rect><rect x="113.72" y="313.98" width="27.5" height="3.83" style="fill:#fff"></rect><rect x="113.72" y="329.83" width="27.5" height="3.83" style="fill:#fff"></rect><rect x="113.72" y="345.67" width="27.5" height="3.83" style="fill:#fff"></rect><rect x="113.72" y="361.52" width="27.5" height="3.83" style="fill:#fff"></rect><rect x="113.72" y="377.36" width="27.5" height="3.83" style="fill:#fff"></rect><rect x="113.72" y="393.21" width="27.5" height="3.83" style="fill:#fff"></rect><rect x="113.72" y="409.06" width="27.5" height="3.83" style="fill:#fff"></rect><rect x="620.73" y="247.15" width="30.5" height="36.02" style="fill:#dbdbdb"></rect><rect x="651.23" y="247.15" width="19.34" height="37.34" style="fill:#c7c7c7"></rect><rect x="652.66" y="263.06" width="19.19" height="21.44" style="fill:#dbdbdb"></rect><rect x="671.85" y="263.06" width="11.97" height="21.44" style="fill:#c7c7c7"></rect><rect x="609.04" y="280.83" width="49.31" height="179.21" style="fill:#ebebeb"></rect><rect x="614.67" y="288.54" width="15.51" height="6.34" style="fill:#fff"></rect><rect x="634.51" y="288.54" width="15.51" height="6.34" style="fill:#fff"></rect><rect x="614.67" y="299.3" width="15.51" height="6.34" style="fill:#fff"></rect><rect x="634.51" y="299.3" width="15.51" height="6.34" style="fill:#fff"></rect><rect x="614.67" y="310.05" width="15.51" height="6.34" style="fill:#fff"></rect><rect x="634.51" y="310.05" width="15.51" height="6.34" style="fill:#fff"></rect><rect x="614.67" y="320.81" width="15.51" height="6.34" style="fill:#fff"></rect><rect x="634.51" y="320.81" width="15.51" height="6.34" style="fill:#fff"></rect><rect x="614.67" y="331.57" width="15.51" height="6.34" style="fill:#fff"></rect><rect x="634.51" y="331.57" width="15.51" height="6.34" style="fill:#fff"></rect><rect x="614.67" y="342.32" width="15.51" height="6.34" style="fill:#fff"></rect><rect x="634.51" y="342.32" width="15.51" height="6.34" style="fill:#fff"></rect><rect x="614.67" y="353.08" width="15.51" height="6.34" style="fill:#fff"></rect><rect x="634.51" y="353.08" width="15.51" height="6.34" style="fill:#fff"></rect><rect x="614.67" y="363.84" width="15.51" height="6.34" style="fill:#fff"></rect><rect x="634.51" y="363.84" width="15.51" height="6.34" style="fill:#fff"></rect><rect x="614.67" y="374.59" width="15.51" height="6.34" style="fill:#fff"></rect><rect x="634.51" y="374.59" width="15.51" height="6.34" style="fill:#fff"></rect><rect x="614.67" y="385.35" width="15.51" height="6.34" style="fill:#fff"></rect><rect x="634.51" y="385.35" width="15.51" height="6.34" style="fill:#fff"></rect><rect x="614.67" y="396.11" width="15.51" height="6.34" style="fill:#fff"></rect><rect x="634.51" y="396.11" width="15.51" height="6.34" style="fill:#fff"></rect><rect x="614.67" y="406.87" width="15.51" height="6.34" style="fill:#fff"></rect><rect x="634.51" y="406.87" width="15.51" height="6.34" style="fill:#fff"></rect><rect x="614.67" y="417.62" width="15.51" height="6.34" style="fill:#fff"></rect><rect x="634.51" y="417.62" width="15.51" height="6.34" style="fill:#fff"></rect><rect x="614.67" y="428.38" width="15.51" height="6.34" style="fill:#fff"></rect><rect x="634.51" y="428.38" width="15.51" height="6.34" style="fill:#fff"></rect><rect x="658.35" y="280.83" width="39.96" height="179.21" style="fill:#c7c7c7"></rect><rect x="681.57" y="428.38" width="12.73" height="6.34" transform="translate(1375.87 863.1) rotate(180)" style="fill:#ebebeb"></rect><rect x="665.28" y="428.38" width="12.73" height="6.34" transform="translate(1343.3 863.1) rotate(180)" style="fill:#ebebeb"></rect><rect x="681.57" y="417.62" width="12.73" height="6.34" transform="translate(1375.87 841.58) rotate(180)" style="fill:#ebebeb"></rect><rect x="665.28" y="417.62" width="12.73" height="6.34" transform="translate(1343.3 841.58) rotate(180)" style="fill:#ebebeb"></rect><rect x="681.57" y="406.87" width="12.73" height="6.34" transform="translate(1375.87 820.07) rotate(180)" style="fill:#ebebeb"></rect><rect x="665.28" y="406.87" width="12.73" height="6.34" transform="translate(1343.3 820.07) rotate(180)" style="fill:#ebebeb"></rect><rect x="681.57" y="396.11" width="12.73" height="6.34" transform="translate(1375.87 798.55) rotate(180)" style="fill:#ebebeb"></rect><rect x="665.28" y="396.11" width="12.73" height="6.34" transform="translate(1343.3 798.55) rotate(180)" style="fill:#ebebeb"></rect><rect x="681.57" y="385.35" width="12.73" height="6.34" transform="translate(1375.87 777.04) rotate(180)" style="fill:#ebebeb"></rect><rect x="665.28" y="385.35" width="12.73" height="6.34" transform="translate(1343.3 777.04) rotate(180)" style="fill:#ebebeb"></rect><rect x="681.57" y="374.59" width="12.73" height="6.34" transform="translate(1375.87 755.53) rotate(180)" style="fill:#ebebeb"></rect><rect x="665.28" y="374.59" width="12.73" height="6.34" transform="translate(1343.3 755.53) rotate(180)" style="fill:#ebebeb"></rect><rect x="681.57" y="363.84" width="12.73" height="6.34" transform="translate(1375.87 734.01) rotate(180)" style="fill:#ebebeb"></rect><rect x="665.28" y="363.84" width="12.73" height="6.34" transform="translate(1343.3 734.01) rotate(180)" style="fill:#ebebeb"></rect><rect x="681.57" y="353.08" width="12.73" height="6.34" transform="translate(1375.87 712.5) rotate(180)" style="fill:#ebebeb"></rect><rect x="665.28" y="353.08" width="12.73" height="6.34" transform="translate(1343.3 712.5) rotate(180)" style="fill:#ebebeb"></rect><rect x="681.57" y="342.32" width="12.73" height="6.34" transform="translate(1375.87 690.98) rotate(180)" style="fill:#ebebeb"></rect><rect x="665.28" y="342.32" width="12.73" height="6.34" transform="translate(1343.3 690.98) rotate(180)" style="fill:#ebebeb"></rect><rect x="681.57" y="331.57" width="12.73" height="6.34" transform="translate(1375.87 669.47) rotate(180)" style="fill:#ebebeb"></rect><rect x="665.28" y="331.57" width="12.73" height="6.34" transform="translate(1343.3 669.47) rotate(180)" style="fill:#ebebeb"></rect><rect x="681.57" y="320.81" width="12.73" height="6.34" transform="translate(1375.87 647.96) rotate(180)" style="fill:#ebebeb"></rect><rect x="665.28" y="320.81" width="12.73" height="6.34" transform="translate(1343.3 647.96) rotate(180)" style="fill:#ebebeb"></rect><rect x="681.57" y="310.05" width="12.73" height="6.34" transform="translate(1375.87 626.44) rotate(180)" style="fill:#ebebeb"></rect><rect x="665.28" y="310.05" width="12.73" height="6.34" transform="translate(1343.3 626.44) rotate(180)" style="fill:#ebebeb"></rect><rect x="681.57" y="299.3" width="12.73" height="6.34" transform="translate(1375.87 604.93) rotate(180)" style="fill:#ebebeb"></rect><rect x="665.28" y="299.3" width="12.73" height="6.34" transform="translate(1343.3 604.93) rotate(180)" style="fill:#ebebeb"></rect><rect x="681.57" y="288.54" width="12.73" height="6.34" transform="translate(1375.87 583.41) rotate(180)" style="fill:#ebebeb"></rect><rect x="665.28" y="288.54" width="12.73" height="6.34" transform="translate(1343.3 583.41) rotate(180)" style="fill:#ebebeb"></rect><rect x="260.24" y="343.27" width="58.16" height="116.78" style="fill:#c7c7c7"></rect><rect x="269.39" y="353.38" width="10.29" height="7.15" style="fill:#dbdbdb"></rect><rect x="269.39" y="368.66" width="10.29" height="7.15" style="fill:#dbdbdb"></rect><rect x="269.39" y="383.94" width="10.29" height="7.15" style="fill:#dbdbdb"></rect><rect x="269.39" y="399.22" width="10.29" height="7.15" style="fill:#dbdbdb"></rect><rect x="269.39" y="414.51" width="10.29" height="7.15" style="fill:#dbdbdb"></rect><rect x="269.39" y="429.79" width="10.29" height="7.15" style="fill:#dbdbdb"></rect><rect x="269.39" y="445.07" width="10.29" height="7.15" style="fill:#dbdbdb"></rect><rect x="284.19" y="353.38" width="10.29" height="7.15" style="fill:#dbdbdb"></rect><rect x="284.19" y="368.66" width="10.29" height="7.15" style="fill:#dbdbdb"></rect><rect x="284.19" y="383.94" width="10.29" height="7.15" style="fill:#dbdbdb"></rect><rect x="284.19" y="399.22" width="10.29" height="7.15" style="fill:#dbdbdb"></rect><rect x="284.19" y="414.51" width="10.29" height="7.15" style="fill:#dbdbdb"></rect><rect x="284.19" y="429.79" width="10.29" height="7.15" style="fill:#dbdbdb"></rect><rect x="284.19" y="445.07" width="10.29" height="7.15" style="fill:#dbdbdb"></rect><rect x="298.96" y="353.38" width="10.29" height="7.15" style="fill:#dbdbdb"></rect><rect x="298.96" y="368.66" width="10.29" height="7.15" style="fill:#dbdbdb"></rect><rect x="298.96" y="383.94" width="10.29" height="7.15" style="fill:#dbdbdb"></rect><rect x="298.96" y="399.22" width="10.29" height="7.15" style="fill:#dbdbdb"></rect><rect x="298.96" y="414.51" width="10.29" height="7.15" style="fill:#dbdbdb"></rect><rect x="298.96" y="429.79" width="10.29" height="7.15" style="fill:#dbdbdb"></rect><rect x="298.96" y="445.07" width="10.29" height="7.15" style="fill:#dbdbdb"></rect><rect x="279.68" y="331.1" width="38.72" height="12.17" style="fill:#dbdbdb"></rect><rect x="293.85" y="323.57" width="24.55" height="7.53" style="fill:#ebebeb"></rect><rect x="318.4" y="343.27" width="40.81" height="116.78" style="fill:#a6a6a6"></rect><rect x="346.65" y="443.93" width="8.38" height="7.15" transform="translate(701.69 895.01) rotate(180)" style="fill:#c7c7c7"></rect><rect x="346.65" y="428.65" width="8.38" height="7.15" transform="translate(701.69 864.45) rotate(180)" style="fill:#c7c7c7"></rect><rect x="346.65" y="413.36" width="8.38" height="7.15" transform="translate(701.69 833.88) rotate(180)" style="fill:#c7c7c7"></rect><rect x="346.65" y="398.08" width="8.38" height="7.15" transform="translate(701.69 803.32) rotate(180)" style="fill:#c7c7c7"></rect><rect x="346.65" y="382.8" width="8.38" height="7.15" transform="translate(701.69 772.76) rotate(180)" style="fill:#c7c7c7"></rect><rect x="346.65" y="367.52" width="8.38" height="7.15" transform="translate(701.69 742.19) rotate(180)" style="fill:#c7c7c7"></rect><rect x="346.65" y="352.24" width="8.38" height="7.15" transform="translate(701.69 711.63) rotate(180)" style="fill:#c7c7c7"></rect><rect x="334.6" y="443.93" width="8.38" height="7.15" transform="translate(677.58 895.01) rotate(180)" style="fill:#c7c7c7"></rect><rect x="334.6" y="428.65" width="8.38" height="7.15" transform="translate(677.58 864.45) rotate(180)" style="fill:#c7c7c7"></rect><rect x="334.6" y="413.36" width="8.38" height="7.15" transform="translate(677.58 833.88) rotate(180)" style="fill:#c7c7c7"></rect><rect x="334.6" y="398.08" width="8.38" height="7.15" transform="translate(677.58 803.32) rotate(180)" style="fill:#c7c7c7"></rect><rect x="334.6" y="382.8" width="8.38" height="7.15" transform="translate(677.58 772.76) rotate(180)" style="fill:#c7c7c7"></rect><rect x="334.6" y="367.52" width="8.38" height="7.15" transform="translate(677.58 742.19) rotate(180)" style="fill:#c7c7c7"></rect><rect x="334.6" y="352.24" width="8.38" height="7.15" transform="translate(677.58 711.63) rotate(180)" style="fill:#c7c7c7"></rect><rect x="322.58" y="443.93" width="8.38" height="7.15" transform="translate(653.54 895.01) rotate(180)" style="fill:#c7c7c7"></rect><rect x="322.58" y="428.65" width="8.38" height="7.15" transform="translate(653.54 864.45) rotate(180)" style="fill:#c7c7c7"></rect><rect x="322.58" y="413.36" width="8.38" height="7.15" transform="translate(653.54 833.88) rotate(180)" style="fill:#c7c7c7"></rect><rect x="322.58" y="398.08" width="8.38" height="7.15" transform="translate(653.54 803.32) rotate(180)" style="fill:#c7c7c7"></rect><rect x="322.58" y="382.8" width="8.38" height="7.15" transform="translate(653.54 772.76) rotate(180)" style="fill:#c7c7c7"></rect><rect x="322.58" y="367.52" width="8.38" height="7.15" transform="translate(653.54 742.19) rotate(180)" style="fill:#c7c7c7"></rect><rect x="322.58" y="352.24" width="8.38" height="7.15" transform="translate(653.54 711.63) rotate(180)" style="fill:#c7c7c7"></rect><rect x="318.4" y="331.1" width="34.63" height="12.17" style="fill:#c7c7c7"></rect><rect x="318.4" y="323.57" width="18.76" height="7.53" style="fill:#dbdbdb"></rect></g><g id="freepik--Floor--inject-64"><path d="M51.69,460.05c207.13-.61,439.49-.62,646.62,0-207.13.62-439.49.61-646.62,0Z" style="fill:#263238"></path></g><g id="freepik--Plants--inject-64"><path d="M690.4,438.63c-2.75-3-5.87-6.39-6-10.7-.14-4,.86-8.48,4.35-10.86,1-.68,1.73-.95,2.17.36.66,2,0,4.55-.31,6.56a41.76,41.76,0,0,0-.47,7.82c.08,1.84.36,3.66.48,5.5,0,.23,0,.46,0,.69s0,.18,0,.26a.86.86,0,0,0,.07.1.18.18,0,0,1,0,.18.09.09,0,0,1,0,.07A.22.22,0,0,1,690.4,438.63Z" style="fill:#4CAF50"></path><path d="M690.74,438.61c-2.27-2.8-4.9-5.67-4.88-9.45a16.65,16.65,0,0,1,1-5.18c.25-.75,1-3,1.94-3.13,1.72-.22-.06,6.88-.11,7.7a17.5,17.5,0,0,0,2,8.76c0,.23,0,.46,0,.69a19.41,19.41,0,0,1-2.09-6.05c-.48-2.94.33-5.48.65-8.37.08-.62.41-2.61-.64-2.37-.69.15-1.43,2.35-1.58,2.82a16.54,16.54,0,0,0-.93,4.91c-.07,3.82,2.49,6.73,4.71,9.6A.09.09,0,0,1,690.74,438.61Z" style="fill:#fff"></path><path d="M689.94,442l-.42.23h0a.11.11,0,0,1-.11,0,.16.16,0,0,1-.07-.21.12.12,0,0,1,.07-.07l.06,0,.14-.05v0l0,0c1.61-2.31,3.58-4.34,5.17-6.67s2.87-4.56,4.56-6.66c1.06-1.33,6.72-7.6,8.29-4.11.7,1.55-.39,3.93-1.07,5.32a17.31,17.31,0,0,1-3.73,4.9C699.11,438.06,694.35,439.62,689.94,442Z" style="fill:#4CAF50"></path><path d="M704.14,428.19c-.47-.49-1.56.28-1.94.51-1.57,1-2.64,2.71-3.79,4.15a77.69,77.69,0,0,1-7.68,8.23l-.61.38c-.17.1-.32.22-.49.31h0l-.14.1,0,0-.12.07h0a.13.13,0,0,0,0,.06.2.2,0,0,0,.09.16l.39-.24-.26.24.34-.19.08,0,.47-.41a83.74,83.74,0,0,0,8.27-5.39,20.26,20.26,0,0,0,4-4.1C703,431.53,704.86,428.94,704.14,428.19Zm-.38,1.41c-.3,1.62-2.2,3.55-3.31,4.65a28.82,28.82,0,0,1-4,3.26c-1.63,1.11-3.32,2.12-5,3.14,1.61-1.49,3.15-3.06,4.61-4.69,1.18-1.32,2.3-2.69,3.38-4.09a18.44,18.44,0,0,1,2-2.26C701.93,429.09,704.16,427.36,703.76,429.6Z" style="fill:#fff"></path><path d="M682.75,450.9h0l-.11-.11c-2.27-3-5.75-6.58-5.86-10.57-.08-2.94,1.24-7,4.06-8.42,3.18-1.59,3,4.66,3,6.25a115.37,115.37,0,0,1-.93,12.78s0,.06,0,.08v0C682.9,451,682.82,451,682.75,450.9Z" style="fill:#4CAF50"></path><path d="M682.81,450.17c-.4-2.88-.67-5.79-.8-8.7,0-.73.12-6.38-1.31-6-.87.23-1.24,2.36-1.38,3.06a11.34,11.34,0,0,0-.11,3.81c.41,2.92,2.1,5.46,3.35,8.1.07.12.12.25.18.37a.25.25,0,0,0,0,.09h0c.06.05.14.09.16,0C682.88,450.68,682.85,450.43,682.81,450.17Zm-3-6.29a11.86,11.86,0,0,1-.41-3.89c.06-.86.35-4,1.43-4.14.58-.08.54.29.71.93a9.1,9.1,0,0,1,.16.91c.08.74.09,1.5.11,2.24,0,1.32.09,2.63.18,3.95.15,2.15.39,4.29.7,6.42C681.74,448.13,680.42,446.14,679.78,443.88Z" style="fill:#fff"></path><path d="M693.07,451.17a22.24,22.24,0,0,1-12.72,2.31l-.08,0a.16.16,0,0,1-.07-.19.16.16,0,0,1,.18-.13l.27,0c4.3-2.8,8.62-5.54,12.87-8.43,1-.68,7.47-4.89,8-2.28.35,1.61-2,3.7-3,4.71A22.37,22.37,0,0,1,693.07,451.17Z" style="fill:#4CAF50"></path><path d="M697.33,444.74c-1-.33-4,1.71-4.88,2.23-3.56,2.17-7.21,4-10.93,5.8l-.94.46-.38,0a.18.18,0,0,0,.07.19l.1,0,.51,0h0a26.39,26.39,0,0,0,7.92-1.81,25.15,25.15,0,0,0,4.56-2.41,14.38,14.38,0,0,0,4-3.42C697.67,445.36,697.86,444.91,697.33,444.74Zm-.65,1.46c-.21.23-.65.6-.87.79a25.78,25.78,0,0,1-14.72,6.19l-.25,0,.4-.17a75.26,75.26,0,0,0,8.64-4.26c1.4-.83,2.75-1.74,4.19-2.52.6-.32,2.29-1.31,2.89-1.08S697,445.88,696.68,446.2Z" style="fill:#fff"></path><path d="M699,411.7c-.79,2.84-1.51,5.69-2.26,8.54-.09.38-.2.75-.29,1.13l-.6,2.25s0,0,0,0c-.4,1.49-.79,3-1.23,4.44a106.36,106.36,0,0,1-4.11,12.47h0c-.13.3-.26.58-.4.88s-.17.38-.26.55h0c-.09.22-.2.42-.3.63a34.38,34.38,0,0,1-7.42,9.53l0,0-.6.57-.28.27-.15.14-.2.19h0l-.15.14h0l-.53.48q-3,2.7-6,5.32l-.88.79h-1.11l1.1-1c2-1.78,3.95-3.57,5.88-5.41,1.11-1.05,2.19-2.1,3.23-3.18l.11-.11.25-.27.27-.29h0a32.21,32.21,0,0,0,5.83-8.26c.48-1,.92-2.08,1.34-3.14,0-.11.08-.2.12-.3h0l0-.08.12-.32c0-.09.06-.15.09-.23h0c1.22-3.29,2.17-6.69,3.21-10,.29-.95.59-1.91.9-2.86a.49.49,0,0,1,.06-.17.83.83,0,0,1,.06-.21c1.33-4.21,2.72-8.41,3.94-12.64C698.83,411.46,699.07,411.55,699,411.7Z" style="fill:#4CAF50"></path><path d="M694.86,412.85c.79-3.34,3.46-9,7.67-8.61a3.21,3.21,0,0,1,3,3.08c.15,2-1.07,3.92-2.12,5.48-2.8,4.17-6,8-8.48,12.41,0,0-.22.37-.27.47s-.19,0-.14-.1l.25-.42C694.48,421.13,693.92,416.82,694.86,412.85Z" style="fill:#4CAF50"></path><path d="M701.42,408.63c-1.14,0-2.23,1-2.95,1.78a12.79,12.79,0,0,0-2.62,4.27,23,23,0,0,0-1.06,9.79c0,.16,0,.31,0,.46s0,.08,0,.13h0a.94.94,0,0,0,0,.09.06.06,0,0,0,0,.06.11.11,0,0,0,.16.07.08.08,0,0,0,.05-.06.11.11,0,0,1,0-.05s0,0,0,0a32.15,32.15,0,0,1,1.5-3.77,69,69,0,0,1,4.15-7.34C701.2,413.11,704.13,408.72,701.42,408.63Zm.18,3.29a23,23,0,0,1-1.29,2.2c-.75,1.19-1.49,2.38-2.19,3.6-.48.82-.94,1.66-1.36,2.52a36.73,36.73,0,0,0-1.9,4.53c0-.17,0-.34,0-.51a26.89,26.89,0,0,1,.72-8.15,14.1,14.1,0,0,1,1.73-3.91,11.22,11.22,0,0,1,1.16-1.51,7.44,7.44,0,0,1,1-1c.81-.65,2-1,2.44-.64s.42,1,.08,1.92A7.78,7.78,0,0,1,701.6,411.92Z" style="fill:#fff"></path><path d="M58,436.92c2.15,1.72,4.18,3.59,6.18,5.48l3.41,3.22c1.26,1.18,2.46,2.51,4.15,3h0a1,1,0,0,1,.21.11,0,0,0,0,1,0,0,.21.21,0,0,1-.24.27l-.11,0h0a6.63,6.63,0,0,1-1.52-.24,35.91,35.91,0,0,1-4.08-.93,33.64,33.64,0,0,1-7.88-3.3,28.85,28.85,0,0,1-6-4.67c-1.43-1.46-3.59-3.6-4.1-5.66-.47-1.87,2-1.66,3.14-1.4C53.75,433.4,56,435.28,58,436.92Z" style="fill:#4CAF50"></path><path d="M72,448.77c-.29-.11-.56-.23-.84-.36l-.09,0-.82-.4a48.22,48.22,0,0,1-8.07-5.7c-3-2.42-9.68-7.44-10.38-6.32-.52.85,1.84,3.16,2.84,4.19a27.22,27.22,0,0,0,5.26,4.25,35.78,35.78,0,0,0,11.23,4.51l.48.11h0a.45.45,0,0,1,.11,0A.21.21,0,0,0,72,448.77Zm-1,0A40,40,0,0,1,61,444.81a28.58,28.58,0,0,1-4.88-3.53A27.47,27.47,0,0,1,53.88,439c-.29-.35-2.21-2.38-1.77-2.84s2.43.88,2.47.9c.43.23.85.49,1.26.75.85.54,1.66,1.12,2.47,1.72,1.74,1.3,3.42,2.7,5.12,4.06a38,38,0,0,0,7.28,4.91q.62.28,1.23.51Z" style="fill:#fff"></path><path d="M72.72,427.52C74.8,431,75.51,435,75.83,439c.17,2.11.24,4.23.36,6.35a28,28,0,0,0,.58,5.64c0,.08,0,.16.07.25a7,7,0,0,0,.61,1.47.17.17,0,0,1,0,.1,1.47,1.47,0,0,1,.1.13s0,.08,0,.05l-.14-.11h0a.11.11,0,0,1-.12-.06l0-.06-.14-.11c-3.28-2.64-5.34-7.34-6.77-11.13a22.15,22.15,0,0,1-1.51-11.89c.19-1,.47-3.4,1.65-3.82S72.28,426.79,72.72,427.52Z" style="fill:#4CAF50"></path><path d="M77.29,452.65c-.12-.35-.23-.71-.33-1.07,0-.12-.08-.25-.12-.38s0-.17-.07-.25A84,84,0,0,1,75,440.53a38.38,38.38,0,0,0-1.59-7.18c-.2-.59-1.13-3.65-2.14-3.41-1.2.28-.72,3.59-.63,4.4a43.51,43.51,0,0,0,1.6,7.22A38.27,38.27,0,0,0,77,452.46h0a.78.78,0,0,0,0,.14l.13.11a.09.09,0,0,0,0,.06.09.09,0,0,0,.12.06Zm-4.61-10.48a56.44,56.44,0,0,1-1.51-6,21.81,21.81,0,0,1-.4-3.32,8.52,8.52,0,0,1,.12-2c.33-1.22,1.24.14,1.57.77,1.91,3.73,2.17,8.29,2.73,12.36a43,43,0,0,0,1.7,8.14A40.33,40.33,0,0,1,72.68,442.17Z" style="fill:#fff"></path><path d="M84.38,457.63a.2.2,0,0,1,0,.21h.08a.05.05,0,0,1,.07.05.06.06,0,0,1,0,.08c-4.71,1.07-10,1.65-14.75.68A18.79,18.79,0,0,1,64,456.53c-1.21-.71-3.66-2.13-3.9-3.69-.48-3.14,8.11-.43,9.4,0,2.36.75,4.65,1.7,7,2.5,2.56.87,5.19,1.55,7.8,2.23A.18.18,0,0,1,84.38,457.63Z" style="fill:#4CAF50"></path><path d="M84.51,457.86l0,0h-.1a.2.2,0,0,0,0-.21l-.78,0a40.57,40.57,0,0,1-12.27-2.46,38.28,38.28,0,0,0-6-1.84c-.51-.08-2.42-.55-2,.63.2.61,3.39,2.17,4.25,2.51a26.37,26.37,0,0,0,6.13,1.48,42.56,42.56,0,0,0,10.58,0l.31,0S84.51,457.87,84.51,457.86Zm-9.1,0a30.67,30.67,0,0,1-6.17-1.08,21.26,21.26,0,0,1-2.35-.86,13.63,13.63,0,0,1-1.75-.88c-1.35-.85-1.64-1.18-1.54-1.43s.32-.27,1.38-.16a9.88,9.88,0,0,1,2,.44c.93.28,1.85.59,2.76.92,1.84.65,3.67,1.32,5.54,1.83a31.62,31.62,0,0,0,8.27,1.15A49.27,49.27,0,0,1,75.41,457.87Z" style="fill:#fff"></path><path d="M83,444a11.93,11.93,0,0,1,2.76,4.32c1.31,3.16,1.92,6.56,3,9.81.16.48.33,1,.52,1.44,0,.05.38.57.34.55l-.46-.42h0c-1.38-1.27-5.49-5.16-7.15-7.88a24.5,24.5,0,0,1-2.58-5.36c-.28-.9-.8-2.95.06-3.71S82.3,443.38,83,444Z" style="fill:#4CAF50"></path><path d="M89.24,459.56a2.6,2.6,0,0,1-.1-.25c-.15-.39-.29-.79-.42-1.19-1-2.15-1.93-4.33-3-6.47a30.49,30.49,0,0,0-2.54-4.44c-.22-.32-1.6-2.56-2.15-2.29-1.23.62,1.78,6,2.16,6.76A34.65,34.65,0,0,0,88.43,459c.22.25.46.49.69.73l.33.3.09.09,0,0S89.26,459.61,89.24,459.56Zm-.52-.45a37.92,37.92,0,0,1-6.48-10,18.39,18.39,0,0,1-.95-2.29c-.1-.34-.34-1.3-.11-1.44s.8.37,1,.62c3.12,3.9,4.49,8.75,6.68,13.17l.1.21Z" style="fill:#fff"></path><path d="M56.09,413.53c5,7.18,3.36,17,7.85,24.39l0,0c.13.23.28.45.43.68a.16.16,0,0,1-.11.24.11.11,0,0,1-.12-.05l-.1-.17a41.74,41.74,0,0,1-9.38-11.55c-2.09-3.65-3.59-7.81-3.25-12.07.08-1.05.18-3.15,1.41-3.62S55.48,412.64,56.09,413.53Z" style="fill:#4CAF50"></path><path d="M64.4,438.64c-.13-.19-.24-.37-.35-.55L64,438a.21.21,0,0,0,0-.06h0a26.53,26.53,0,0,1-2.58-4.52,61,61,0,0,1-2.53-7.71c-.3-1-2.33-10-4.1-9.31-.51.21-.53,1-.56,1.42a13.28,13.28,0,0,0,.15,3.21,21.84,21.84,0,0,0,2.06,6.23,45.2,45.2,0,0,0,6,9.55c.55.65,1.12,1.28,1.72,1.87l.22.22A.16.16,0,0,0,64.4,438.64Zm-2.9-3.21s0,0,0-.05a58.44,58.44,0,0,1-4-6.43.22.22,0,0,1-.05-.08,27.15,27.15,0,0,1-2.56-6.12,15.43,15.43,0,0,1-.55-3.57c0-1.37.09-2.48.56-2.53.31,0,.79.62,1.1,1.18a30.34,30.34,0,0,1,2.1,6.17c.61,2.09,1.21,4.18,1.85,6.25a31,31,0,0,0,2,4.79,23.35,23.35,0,0,0,2.28,3.66A35.23,35.23,0,0,1,61.5,435.43Z" style="fill:#fff"></path><path d="M90.74,460.11H88.68c-1.48-.62-2.93-1.35-4.34-2.11l-.13-.07-.61-.33c-.24-.13-.48-.26-.72-.41h0c-.6-.33-1.19-.68-1.77-1a50.56,50.56,0,0,1-9.62-6.93l-.23-.23h0l-.09-.09-.17-.16-.26-.27-.45-.5-.13-.15h0A78,78,0,0,1,64,439.27c-.35-.53-.7-1.06-1-1.59v0l-.56-.87-.85-1.36s0,0,0-.05c-1.33-2.13-2.62-4.3-4-6.43-.06-.09.1-.2.16-.1,1.38,2.08,2.8,4.14,4.24,6.19.67,1,1.35,1.92,2,2.88h0a.21.21,0,0,1,0,.06l.07.1.66.94a71.07,71.07,0,0,0,7.08,9.19,32.26,32.26,0,0,0,4.67,3.86l0,0h0l.5.35h0l.28.19.16.1c1.47,1,3,1.89,4.46,2.77,2.06,1.22,4.18,2.29,6.32,3.33h0l.19.1.29.15.15.07.27.13h0Z" style="fill:#4CAF50"></path></g><g id="freepik--Lines--inject-64"><path d="M236.76,194a182.11,182.11,0,0,1-21.6-16.63A182.11,182.11,0,0,1,236.76,194Z" style="fill:#263238"></path><path d="M235.44,200.53a180.24,180.24,0,0,1-26.93,4.22,182.86,182.86,0,0,1,26.93-4.22Z" style="fill:#263238"></path><path d="M233.82,196.06c-16.24-1.66-32.5-4-48.55-7,16.24,1.66,32.5,4,48.55,7Z" style="fill:#263238"></path><path d="M409.56,196.18A181.77,181.77,0,0,1,436,203a180.49,180.49,0,0,1-26.39-6.77Z" style="fill:#263238"></path><path d="M408.21,189.68a182,182,0,0,1,23.08-14.49,180.87,180.87,0,0,1-23.08,14.49Z" style="fill:#263238"></path><path d="M411.46,193.16c15.57-4.88,31.44-9.13,47.37-12.71-15.58,4.87-31.45,9.13-47.37,12.71Z" style="fill:#263238"></path></g><g id="freepik--Car--inject-64"><path d="M541.9,292.77l-.82-2.81s10.37-11.11,13.35-12.48,21.21,2.06,22.2,3.67.6,8.62.36,9.86-16.48,4-19.21,4.13S541.9,292.77,541.9,292.77Z" style="fill:#37474f"></path><path d="M541.08,290l.82,2.81s-6.9,5.2-7.15,5.51.16,1.79.16,1.79h-7V290a16.16,16.16,0,0,0,3.27,1.4C532.19,291.53,541.08,290,541.08,290Z" style="fill:#4CAF50"></path><g style="opacity:0.1"><path d="M541.08,290l.82,2.81s-6.9,5.2-7.15,5.51.16,1.79.16,1.79h-7V290a16.16,16.16,0,0,0,3.27,1.4C532.19,291.53,541.08,290,541.08,290Z"></path></g><path d="M683.87,399.65c-.75,27-11.48,60.14-35.41,60.14-2.34,0-34.38.62-36.47-.07-19.29-6.4-30.71-41.58-28.54-72.58C585.14,363,592.81,336,613,332.71c1.35-.22,35,0,36.5,0C673.63,332.71,684.67,370.59,683.87,399.65Z" style="fill:#263238"></path><path d="M645.46,399.65c-.74,27-11.47,60.14-35.4,60.14s-34.86-38.28-32.46-72.65c1.8-25.75,10.11-54.43,33.47-54.43C635.22,332.71,646.27,370.59,645.46,399.65Z" style="fill:#37474f"></path><path d="M635.5,398.87c-.6,20.8-8.61,46.31-26.29,46.31s-25.69-29.48-23.84-55.94c1.39-19.83,7.59-41.92,24.86-41.92C628.08,347.32,636.16,376.49,635.5,398.87Z" style="fill:#c7c7c7"></path><path d="M604.57,351.82c.37,8.45,1.64,35.38,3.48,35.38,1.54,0,6.08-25.42,7.68-34.61a13.45,13.45,0,0,0-6.26-1.54A15.53,15.53,0,0,0,604.57,351.82Z" style="fill:#263238"></path><path d="M611.36,388.8c1,.74,9.64-11.41,15.93-20.51a38.48,38.48,0,0,0-5.67-10.61C617.54,368.11,610,387.82,611.36,388.8Z" style="fill:#263238"></path><path d="M613,391.93c.44,1.11,9.75-3.15,18.15-7.24a82.17,82.17,0,0,0-1.91-10.07C621.57,381.74,612.46,390.57,613,391.93Z" style="fill:#263238"></path><path d="M613.87,395.73c-.09,1.27,9.34,3.07,17.9,4.42l.06-1.48c.08-2.71,0-5.52-.15-8.36C623.12,392.08,614,394.31,613.87,395.73Z" style="fill:#263238"></path><path d="M629.1,417.79a83.88,83.88,0,0,0,2.17-11.52c-8.21-3.81-17.79-7.91-18.5-6.59S621.94,410.86,629.1,417.79Z" style="fill:#263238"></path><path d="M618.93,437.14a32.2,32.2,0,0,0,7.57-11.61c-5.27-9-14.29-23.91-15.69-23S616.64,429.22,618.93,437.14Z" style="fill:#263238"></path><path d="M600.47,438.83a13,13,0,0,0,7.86,2.63,13.75,13.75,0,0,0,3.24-.36c-.28-7.06-1.57-36.37-3.5-36.37C606.55,404.73,602.14,429.24,600.47,438.83Z" style="fill:#263238"></path><path d="M590.27,421.73a44.58,44.58,0,0,0,4.8,11.1c4.09-10.48,10.68-27.94,9.43-28.88C603.59,403.27,596.27,413.24,590.27,421.73Z" style="fill:#263238"></path><path d="M587.44,406.27a88.55,88.55,0,0,0,1.32,9.22c6.71-6.33,13.6-13.25,13.11-14.48C601.49,400.05,594.57,403,587.44,406.27Z" style="fill:#263238"></path><path d="M587.12,392.64c-.13,2.85-.13,5.72,0,8.57,7.11-1.5,13.73-3.22,13.81-4.47S594.24,394,587.12,392.64Z" style="fill:#263238"></path><path d="M587.48,387.21c6.88,3.27,13.77,6.19,14.38,5s-6.55-9-12.86-15.62A95.56,95.56,0,0,0,587.48,387.21Z" style="fill:#263238"></path><path d="M591,369s0,0,0,0c5.1,8.8,12.25,20.63,13.5,19.77s-4.37-23-6.85-32.22A34.22,34.22,0,0,0,591,369Z" style="fill:#263238"></path><path d="M325.07,437.14h88.16s20.2-94.46-22.18-106.32S316,335.79,325.07,437.14Z" style="fill:#263238"></path><path d="M59.93,408.61l37.82,8,73.76,3.22s-4.67-93.8-52.76-96.77S56.33,357.17,59.93,408.61Z" style="fill:#263238"></path><path d="M434.81,399.65c-.74,27-11.48,60.14-35.4,60.14-2.34,0-34.39.62-36.48-.07-19.28-6.4-30.71-41.58-28.54-72.58,1.69-24.14,9.36-51.19,29.53-54.43,1.34-.22,35,0,36.5,0C424.57,332.71,435.61,370.59,434.81,399.65Z" style="fill:#263238"></path><path d="M396.41,399.65c-.75,27-11.48,60.14-35.4,60.14s-34.87-38.28-32.46-72.65c1.8-25.75,10.11-54.43,33.47-54.43C386.17,332.71,397.21,370.59,396.41,399.65Z" style="fill:#455a64"></path><path d="M386.45,398.87c-.61,20.8-8.61,46.31-26.3,46.31s-25.69-29.48-23.83-55.94c1.38-19.83,7.59-41.92,24.85-41.92C379,347.32,387.1,376.49,386.45,398.87Z" style="fill:#ebebeb"></path><path d="M355.52,351.82c.36,8.45,1.63,35.38,3.47,35.38,1.55,0,6.08-25.42,7.68-34.61a13.41,13.41,0,0,0-6.25-1.54A15.48,15.48,0,0,0,355.52,351.82Z" style="fill:#263238"></path><path d="M362.3,388.8c1,.74,9.64-11.41,15.94-20.51a38.5,38.5,0,0,0-5.68-10.61C368.48,368.11,361,387.82,362.3,388.8Z" style="fill:#263238"></path><path d="M363.94,391.93c.44,1.11,9.76-3.15,18.15-7.24a82.16,82.16,0,0,0-1.9-10.07C372.51,381.74,363.4,390.57,363.94,391.93Z" style="fill:#263238"></path><path d="M364.82,395.73c-.09,1.27,9.33,3.07,17.89,4.42,0-.5.05-1,.06-1.48.09-2.71,0-5.52-.15-8.36C374.06,392.08,364.92,394.31,364.82,395.73Z" style="fill:#263238"></path><path d="M380.05,417.79a85.39,85.39,0,0,0,2.16-11.52c-8.2-3.81-17.78-7.91-18.5-6.59S372.88,410.86,380.05,417.79Z" style="fill:#263238"></path><path d="M369.87,437.14a32.22,32.22,0,0,0,7.58-11.61c-5.28-9-14.3-23.91-15.69-23S367.58,429.22,369.87,437.14Z" style="fill:#263238"></path><path d="M351.42,438.83a13,13,0,0,0,7.85,2.63,13.84,13.84,0,0,0,3.25-.36c-.29-7.06-1.58-36.37-3.51-36.37C357.49,404.73,353.08,429.24,351.42,438.83Z" style="fill:#263238"></path><path d="M341.22,421.73a44.58,44.58,0,0,0,4.79,11.1c4.1-10.48,10.69-27.94,9.43-28.88C354.54,403.27,347.22,413.24,341.22,421.73Z" style="fill:#263238"></path><path d="M338.39,406.27a86,86,0,0,0,1.31,9.22c6.71-6.33,13.6-13.25,13.12-14.48C352.44,400.05,345.52,403,338.39,406.27Z" style="fill:#263238"></path><path d="M338.06,392.64c-.12,2.85-.13,5.72,0,8.57,7.11-1.5,13.72-3.22,13.81-4.47S345.19,394,338.06,392.64Z" style="fill:#263238"></path><path d="M338.42,387.21c6.88,3.27,13.78,6.19,14.39,5s-6.56-9-12.87-15.62A95.56,95.56,0,0,0,338.42,387.21Z" style="fill:#263238"></path><path d="M341.92,369s0,0,0,0c5.09,8.8,12.24,20.63,13.5,19.77s-4.38-23-6.85-32.22A34.07,34.07,0,0,0,341.92,369Z" style="fill:#263238"></path><path d="M171.47,399.65c-.75,27-11.48,60.14-35.4,60.14-2.35,0-34.39.62-36.48-.07-19.28-6.4-30.71-41.58-28.54-72.58C72.74,363,80.41,336,100.58,332.71c1.34-.22,35,0,36.5,0C161.23,332.71,172.27,370.59,171.47,399.65Z" style="fill:#263238"></path><path d="M133.07,399.65c-.75,27-11.48,60.14-35.4,60.14S62.8,421.51,65.2,387.14c1.81-25.75,10.12-54.43,33.48-54.43C122.83,332.71,133.87,370.59,133.07,399.65Z" style="fill:#455a64"></path><path d="M123.11,398.87c-.61,20.8-8.62,46.31-26.3,46.31S71.12,415.7,73,389.24c1.39-19.83,7.6-41.92,24.86-41.92C115.68,347.32,123.76,376.49,123.11,398.87Z" style="fill:#ebebeb"></path><path d="M92.18,351.82c.36,8.45,1.63,35.38,3.47,35.38,1.55,0,6.08-25.42,7.68-34.61a13.41,13.41,0,0,0-6.25-1.54A15.48,15.48,0,0,0,92.18,351.82Z" style="fill:#263238"></path><path d="M99,388.8c1,.74,9.64-11.41,15.93-20.51a38.22,38.22,0,0,0-5.67-10.61C105.14,368.11,97.64,387.82,99,388.8Z" style="fill:#263238"></path><path d="M100.6,391.93c.44,1.11,9.76-3.15,18.15-7.24a84.1,84.1,0,0,0-1.9-10.07C109.17,381.74,100.06,390.57,100.6,391.93Z" style="fill:#263238"></path><path d="M101.48,395.73c-.09,1.27,9.33,3.07,17.89,4.42,0-.5,0-1,.06-1.48.09-2.71,0-5.52-.15-8.36C110.72,392.08,101.58,394.31,101.48,395.73Z" style="fill:#263238"></path><path d="M116.7,417.79a83.88,83.88,0,0,0,2.17-11.52c-8.2-3.81-17.78-7.91-18.5-6.59S109.54,410.86,116.7,417.79Z" style="fill:#263238"></path><path d="M106.53,437.14a32.35,32.35,0,0,0,7.58-11.61c-5.28-9-14.3-23.91-15.69-23S104.24,429.22,106.53,437.14Z" style="fill:#263238"></path><path d="M88.08,438.83a13,13,0,0,0,7.85,2.63,13.9,13.9,0,0,0,3.25-.36c-.29-7.06-1.58-36.37-3.51-36.37C94.15,404.73,89.74,429.24,88.08,438.83Z" style="fill:#263238"></path><path d="M77.88,421.73a44.58,44.58,0,0,0,4.79,11.1c4.1-10.48,10.68-27.94,9.43-28.88C91.2,403.27,83.88,413.24,77.88,421.73Z" style="fill:#263238"></path><path d="M75.05,406.27a86,86,0,0,0,1.31,9.22C83.07,409.16,90,402.24,89.47,401,89.1,400.05,82.18,403,75.05,406.27Z" style="fill:#263238"></path><path d="M74.72,392.64c-.12,2.85-.13,5.72,0,8.57,7.11-1.5,13.73-3.22,13.82-4.47S81.85,394,74.72,392.64Z" style="fill:#263238"></path><path d="M75.08,387.21c6.88,3.27,13.78,6.19,14.38,5s-6.55-9-12.86-15.62A95.56,95.56,0,0,0,75.08,387.21Z" style="fill:#263238"></path><path d="M78.58,369s0,0,0,0c5.09,8.8,12.24,20.63,13.5,19.77s-4.38-23-6.85-32.22A34.07,34.07,0,0,0,78.58,369Z" style="fill:#263238"></path><path d="M328.22,439.9H145.06s-14.74-24-15.58-27.79,2.81-80.24-36.68-80.24c-34.4,0-32.87,76.74-32.87,76.74l-4.21-6.45-.95-11.22,2.68-6.63s-1.26-40.59,1.11-47.06S80.82,308,82.24,306.55s22-16.22,23.54-17.64,53.72-47,82.63-53.34,104.75-12.76,145.26-12.76,138,13.66,145.6,16.19,69.08,58.44,69.08,58.44,74,12.86,83.95,15.07,43.39,26.25,45,29.41,14,36.23,14,36.23,3.79,8.68,4,10.74-4.58,35.54-5.21,37.27-7.58,9.64-9.16,10.27-242.78,4.11-246,3.47-18.39-5-20.92-6.74-7.4-100.45-52.66-100.45C321.9,332.71,325.06,408.16,328.22,439.9Z" style="fill:#ebebeb"></path><path d="M690,426.16c-.63,1.74-7.58,9.64-9.15,10.27s-242.77,4.11-246,3.48-18.39-5.06-20.92-6.74-7.39-100.46-52.66-100.46c-39.37,0-36.21,75.45-33,107.2H314.55c-.83-10.22-1.22-67.05.61-75.66,2-9.44,21.54-64.06,23.54-64.42,11.47-2.09,209.65-2.39,209.65-2.39s74,12.86,83.95,15.08,43.4,26.24,45,29.4,14,36.22,14,36.22,3.79,8.7,4,10.75S690.65,424.43,690,426.16Z" style="fill:#37474f"></path><path d="M526.46,438.9c72.65-.91,153.52-2.13,154.4-2.47,1.57-.63,8.53-8.53,9.15-10.26s5.38-35.22,5.21-37.28-3.93-10.75-3.93-10.75-12.44-33.07-14-36.22-35-27.2-45-29.4-81.36-14.76-81.36-14.76,67.66,14.79,71.12,17.8,29.44,31.29,32.43,35.49,3.46,36,4.41,38.62,7.27,19.08,7.9,21.91-2.21,14.23-3.16,15.16S532.56,438.4,526.46,438.9Z" style="opacity:0.1"></path><path d="M328.23,439.9c-2.89-28.82-5.74-93.64,23.2-105.34-14.79,2.68-35.42,26.9-36.27,90.18L145.06,439.9Z" style="opacity:0.1"></path><path d="M317.42,439.91H145.06s-14.74-24-15.58-27.81,2.81-80.23-36.68-80.23c-34.4,0-32.87,76.74-32.87,76.74l-4.21-6.46L54.77,391l2.68-6.65s-1.26-40.58,1.11-47.06S80.82,308,82.24,306.55s22-16.21,23.54-17.64c.74-.68,12.9-11.31,28.56-23,0,0-6,12.64-7.24,18.28-.5,2.21-6.89,26.5-6.89,26.5l3.78,17.9s7.29,5.37,17.38,35.4c6.71,20,6.62,49.34,8,51.48.3.46,7.17,8.45,7.44,8.78l158.37.47Z" style="fill:#37474f"></path><path d="M213.89,302.94h9.35a3.94,3.94,0,0,1,3.94,3.94v4.23a3.94,3.94,0,0,1-3.94,3.94h-9.35A3.94,3.94,0,0,1,210,311.1v-4.23a3.93,3.93,0,0,1,3.93-3.93Z" transform="matrix(1, 0.08, -0.08, 1, 24.2, -15.77)" style="opacity:0.2"></path><rect x="204.85" y="306.57" width="27.59" height="4.85" rx="1" transform="translate(24.2 -15.78) rotate(4.37)" style="fill:#ebebeb"></rect><rect x="204.85" y="306.57" width="27.59" height="4.85" rx="1" transform="translate(24.2 -15.78) rotate(4.37)" style="opacity:0.1"></rect><rect x="136" y="297.23" width="15.94" height="12.1" rx="3.94" transform="matrix(1, 0.08, -0.08, 1, 23.55, -10.1)" style="opacity:0.2"></rect><rect x="131.27" y="300.86" width="25.54" height="4.85" rx="1" transform="translate(23.55 -10.1) rotate(4.37)" style="fill:#ebebeb"></rect><rect x="131.27" y="300.86" width="25.54" height="4.85" rx="1" transform="translate(23.55 -10.1) rotate(4.37)" style="opacity:0.1"></rect><g style="opacity:0.2"><path d="M148.85,399a179.07,179.07,0,0,0-9.76-44.86,100.18,100.18,0,0,0-4.55-10.61,73.94,73.94,0,0,0-5.86-10,50.3,50.3,0,0,0-7.57-8.79,45.82,45.82,0,0,0-4.55-3.66,37,37,0,0,0-5.13-2.82,29.72,29.72,0,0,0-11.35-2.68,27.19,27.19,0,0,0-11.53,1.75c-7.4,2.85-13,8.86-17,15.41A85.25,85.25,0,0,0,62.7,354a132.91,132.91,0,0,0-4.14,22.6,132.58,132.58,0,0,1,4.81-22.4,85,85,0,0,1,9.11-20.88C76.53,327,82,321.22,89,318.57a25.92,25.92,0,0,1,11-1.6,28.44,28.44,0,0,1,10.84,2.62,34.12,34.12,0,0,1,4.93,2.68,42.42,42.42,0,0,1,4.41,3.51,48.41,48.41,0,0,1,7.43,8.53c4.42,6.17,7.64,13.15,10.45,20.22a166.46,166.46,0,0,1,6.67,21.89A198.26,198.26,0,0,1,148.85,399Z" style="fill:#fff"></path><path d="M413.23,399a180,180,0,0,0-9.39-43.88A95.94,95.94,0,0,0,394,334.85a62.11,62.11,0,0,0-7.13-8.82,42.09,42.09,0,0,0-9.1-6.85,34.8,34.8,0,0,0-10.9-3.42,33.75,33.75,0,0,0-11.38.66c-7.49,1.77-13.94,6.58-18.65,12.45a72.05,72.05,0,0,0-10.95,19.66,113.68,113.68,0,0,0-5.76,21.7,113.08,113.08,0,0,1,6.41-21.44,71.46,71.46,0,0,1,11.14-19.22c4.74-5.63,10.92-10.26,18.11-11.89a32.52,32.52,0,0,1,10.91-.57,33.39,33.39,0,0,1,10.4,3.33A40.82,40.82,0,0,1,385.9,327a60.83,60.83,0,0,1,7,8.58,100.38,100.38,0,0,1,9.91,19.93,167.7,167.7,0,0,1,6.43,21.43A198.11,198.11,0,0,1,413.23,399Z" style="fill:#fff"></path><path d="M543.28,297.57l31.29,13.36,31.34,13.26-.14-.13,12.49,23.43.3-.51c-30.22.27-60.43.38-90.65.79l.22.06-36-21.18,0,0h0l-44.86-13.35-44.92-13.2L447,313.75l44.82,13.53-.08,0,35.92,21.32.1.06h.12c30.22-.17,60.43-.64,90.65-.95h.56l-.26-.5-12.59-23.37,0-.09-.1,0-31.4-13.09Z" style="fill:#fff"></path></g><g style="opacity:0.1"><path d="M545.6,297.54l63.16,15,7.88,1.93c1.31.31,2.6.68,3.91,1l.9.3a2.52,2.52,0,0,1,.44.17l.34.29a12,12,0,0,1,1.35,1.39c3.53,4,6.75,8.42,10.06,12.69q9.79,12.93,19.42,26c-6.16-8.9-12.4-17.74-18.84-26.44-3.22-4.35-6.45-8.69-10-12.83a13.1,13.1,0,0,0-1.48-1.51l-.44-.37a3.7,3.7,0,0,0-.5-.19l-1-.35c-1.31-.36-2.62-.74-3.93-1.06l-7.88-2q-15.81-3.72-31.65-7.26T545.6,297.54Z"></path><path d="M341.83,300.07l22,5.92,22,5.81,44,11.79c7.34,2,14.68,3.91,21.94,6a74.47,74.47,0,0,1,10.43,4l10.28,4.45,20.56,8.9,20.64,8.77-20.4-9.18-20.48-9L462.57,333a75.76,75.76,0,0,0-10.49-4.14c-7.27-2.17-14.59-4.18-21.91-6.18l-44.11-11.5L364,305.55Z"></path><path d="M315.16,426.27l-21.29-.43-21.29-.28L230,425l-42.57-.38-21.29-.31-5.32-.08-2.65-.09c-.42,0-.92,0-1.28-.08s-.67-.44-1-.69c-2.36-2.46-4.45-5.16-6.56-7.83,2,2.72,4.05,5.46,6.37,8,.32.27.56.71,1.07.78s.91.08,1.37.13l2.66.15,5.32.21,21.28.49L230,426l42.58.26,21.29.11Z"></path><path d="M199.57,296.82q-2.92,14.13-5.72,28.29v.13l3.7,22.4L201.36,370c2.53,14.92,5.23,29.82,8,44.7q-3.42-22.44-7.16-44.85l-3.77-22.39-3.89-22.37v.12Q197.15,311,199.57,296.82Z"></path><path d="M301.87,300.07q3.48,18.6,7.18,37.16v-.08q.24,20.25.63,40.49l.45,20.25.6,16.82,0-16.83-.18-20.25q-.22-20.25-.64-40.49v-.08Q306,318.55,301.87,300.07Z"></path><polygon points="310.72 414.71 290.55 414.5 270.37 414.36 230.02 414.09 189.64 413.98 169.46 413.92 149.26 413.95 169.43 414.16 189.61 414.3 229.97 414.57 270.34 414.68 290.52 414.73 310.72 414.71"></polygon><path d="M674.7,365.32c1.15,6.23,2.65,12.37,4.11,18.51l.58,2.3.14.57.07.29c0,.14,0,0,.11,0,0,.34-.05.78-.07,1.17-.13,1.6-.28,3.19-.37,4.81-.21,3.21-.4,6.42-.47,9.58.47-3.13.82-6.22,1.14-9.3.18-1.53.29-3.09.44-4.64l.11-1.19a1.31,1.31,0,0,0,0-.61l-.06-.29-.14-.58-.54-2.3C678.16,377.48,676.61,371.36,674.7,365.32Z"></path><path d="M439,365.32c-1.26,3.14-2.4,6.32-3.54,9.5s-2.21,6.38-3.2,9.61l0,.08v.06c0,2.41,0,4.81.13,7.21s.16,4.81.32,7.22c.15-2.41.26-4.81.32-7.22s.1-4.8.12-7.21l0,.14c1.12-3.19,2.08-6.42,3.12-9.64S438.21,368.6,439,365.32Z"></path><path d="M695.15,390.31l-17.86,17.74.11,0-63.83,2.13c-10.64.34-21.28.78-31.92,1l-31.93-.07L422,411.42h0l-25.95-6.28L422,411.74h0l127.74.31,31.94-.07c10.64-.3,21.27-.79,31.91-1.17l63.83-2.51h.06l0,0Z"></path></g><path d="M324.72,300.38c-2.59,2.15-152.31-8.1-154.63-8.31s-41.33-6.32-43.13-7.79,29.49-31.25,53.71-41.42c5.3-2.22,66.5-10.31,100,2.48,3.67,1.4,23.32,22.91,35.6,37.5C324.17,292.26,326,299.35,324.72,300.38Z" style="fill:#263238"></path><path d="M293.11,295c-2.32,1.94-117.57-5.77-119.66-6s-38.54-5.69-40.11-7.08c-.86-.76,27.89-28.23,49.69-37.39,4.77-2,70.61-7.48,92.28,3.43,3.16,1.59,19.76,18.74,29.71,32.74C307.59,284.39,294.22,294.11,293.11,295Z" style="fill:#455a64"></path><path d="M242,241.8l-34.45,49.5-14-.89,34.07-49C232.42,241.44,237.25,241.55,242,241.8ZM133.34,282a2.83,2.83,0,0,0,.81.35l3.87-5.55C134.89,279.8,133.12,281.79,133.34,282Zm159.27-16.71L272,294.87c5.72.24,10.62.4,14.26.45l14.27-20.5C298,271.6,295.3,268.35,292.61,265.28Zm-42.37-22.89-34.4,49.42,2.08.13,34.34-49.35Zm-96.52,20.79-14.19,20.39,1.91.37,16.95-24.36C156.8,260.78,155.23,262,153.72,263.18Zm54.95-21.26-32.92,47.31,5.91.4,33.39-48Q211.77,241.77,208.67,241.92Zm73,11.61L253.47,294c2,.12,4,.22,6,.32l25.79-37.06C284,255.88,282.74,254.64,281.62,253.53Z" style="fill:#fff;opacity:0.1"></path><polygon points="198.41 290.94 217.77 240.93 221.98 240.93 202.86 291.3 198.41 290.94" style="fill:#263238"></polygon><path d="M548.21,297.54c-2.1,0-203.83,2.53-209,2.53-1.64,0-11-19.37-50.49-60-.9-.93,68.21-5.76,107.32-5.76,11.69,0,81.54,4.29,86.05,6.72C493.4,247,551.7,297.5,548.21,297.54Z" style="fill:#263238"></path><path d="M537.28,291.66c-1.95,0-192.31,3.37-197,3.37-1.52,0-7.11-15.2-43.63-52.84-.83-.86,68-5.07,104.18-5.07,10.82,0,76.18,3.83,80.36,6.08C491.56,248.81,540.5,291.61,537.28,291.66Z" style="fill:#455a64"></path><g style="opacity:0.1"><path d="M447.4,239.6l-54.56,54.56-19.67.34,56.08-56.08C435.15,238.76,441.38,239.16,447.4,239.6Z" style="fill:#fff"></path><path d="M342.46,238.94,317,264.42q-4-4.73-9.08-10.26l14.1-14.1C328.2,239.69,335.16,239.3,342.46,238.94Z" style="fill:#fff"></path><path d="M520.37,274.82l-17.43,17.43-19.69.35L510,265.82C513.59,268.85,517.1,271.92,520.37,274.82Z" style="fill:#fff"></path><path d="M460.77,240.62l-53.29,53.29-2.93,0,53.56-53.56Z" style="fill:#fff"></path><path d="M534.44,287.91l-3.87,3.87-2.92.05,5.35-5.35C533.52,287,534,287.46,534.44,287.91Z" style="fill:#fff"></path><path d="M354.15,238.39l-32.08,32.08-1.3-1.57,30.38-30.38Z" style="fill:#fff"></path><path d="M413.59,237.57l-57.21,57.21-8.36.14,57.68-57.68C407.9,237.31,410.57,237.43,413.59,237.57Z" style="fill:#fff"></path><path d="M500.69,258,465.74,292.9l-8.36.15,38.79-38.79C497.63,255.44,499.15,256.68,500.69,258Z" style="fill:#fff"></path></g><path d="M486.17,360.14c2.75,2.75-2.1,19.79-6.31,21.06s-31.1-.63-34.26-1.47-29.48-14-32.21-17-5.27-27.16-2.32-28.85,51.6,10.95,56.86,12.43S483.86,357.82,486.17,360.14Z" style="fill:#fff"></path><path d="M486.17,360.14c2.74,3.45-2.12,19.75-6.3,21.18-5,.84-10.18.42-15.24.36-6.44-.31-12.88-.39-19.28-1.41-6.11-2.29-11.75-5.23-17.57-8.09-3.81-1.95-7.61-3.92-11.33-6.12-1.41-.93-3.11-1.74-4.15-3.15-2.68-4.58-5.16-25.18-2.17-29.39a2.1,2.1,0,0,1,1.26-.64,19.66,19.66,0,0,1,4.23.33c4.27.68,8.43,1.65,12.61,2.62,13.51,3.24,27,6.73,40.31,10.58,3,1.19,5.54,3.25,8.07,5.21a122.65,122.65,0,0,1,9.56,8.52Zm0,0a122.37,122.37,0,0,0-9.61-8.46c-3.36-2.6-6.9-5.21-11.18-5.91q-12.42-3.11-24.93-5.9c-9.56-1.92-19.13-4.66-28.82-5.21-.07,0-.05,0-.1,0s0,0,0,0c-1,2.1-.73,4.82-.78,7.24.25,6.22.84,12.71,2.66,18.66a5.51,5.51,0,0,0,.71,1.46,9.85,9.85,0,0,0,.76.64c7.94,5.25,16.61,9.49,25.08,13.83,1.9.91,3.87,1.9,5.74,2.6a55.45,55.45,0,0,0,6.24.88,215.82,215.82,0,0,0,25.54,1.37,6.82,6.82,0,0,0,3-.62c3.71-2.54,8.33-16.87,5.68-20.62Z" style="fill:#ebebeb"></path><path d="M473.83,364.12a12.72,12.72,0,1,1-21.45-9.24,12.74,12.74,0,0,1,21.45,9.24Zm0,0c0-10.57-13.11-15.71-20.24-8a11.76,11.76,0,0,0,0,16c7.13,7.69,20.26,2.54,20.24-8Z" style="fill:#ebebeb"></path><path d="M445.32,354.46a10.17,10.17,0,1,1-17.1-7.44,10.19,10.19,0,0,1,17.1,7.44Zm0,0c0-8.31-10.34-12.31-15.88-6.22a9.18,9.18,0,0,0,0,12.44c5.49,6.1,15.94,2.06,15.88-6.22Z" style="fill:#ebebeb"></path><path d="M683.29,359.14c-1,2-7.83,9.3-9.2,10.32s-9.61,2.43-10.57,1.86-6.18-12.38-6-14.37,11-23.63,12.9-23.21,12.36,7.12,12.91,9.26S684.34,357,683.29,359.14Z" style="fill:#fff"></path><path d="M683.29,359.14a71.09,71.09,0,0,1-8,9.47,5.45,5.45,0,0,1-2.64,1.7,33,33,0,0,1-8.52,1.61,1.43,1.43,0,0,1-1-.34c-2.49-3.5-4-7.42-5.66-11.37-.44-1.32-1.19-2.95-.6-4.34A110.8,110.8,0,0,1,666.47,337a14.28,14.28,0,0,1,3.2-3.84,1.29,1.29,0,0,1,.37-.15,1.54,1.54,0,0,1,1,.16,48,48,0,0,1,11.52,8.26,3.33,3.33,0,0,1,1.08,2.17,85.65,85.65,0,0,1,.31,9.34,21.89,21.89,0,0,1-.65,6.16Zm0,0a21.56,21.56,0,0,0,.57-6.16,50.62,50.62,0,0,0-.85-10c-1.49-2.22-4.26-3.68-6.46-5.19a35.6,35.6,0,0,0-6.3-3.34c-.06,0,0,0,.07,0h.09a18.26,18.26,0,0,0-2.48,3.49c-2.07,3.53-4,7.21-5.81,10.89-1.26,2.51-2.52,5.05-3.56,7.64-.29.69-.13.9.05,1.73a62.44,62.44,0,0,0,5.13,12.62c.12.22.85.13,1.13.16a28.67,28.67,0,0,0,9-1.61,54.77,54.77,0,0,0,9.41-10.24Z" style="fill:#ebebeb"></path><path d="M675.59,359.42c.25,4.91-4,11.23-9.42,8.19-5.57-3.41-5.58-13,0-16.38,5.46-3,9.68,3.28,9.43,8.19Zm0,0c.07-3.57-2.35-8.18-6.3-7.95-7.08,1-7.09,14.88,0,15.91,4,.22,6.37-4.39,6.3-8Z" style="fill:#ebebeb"></path><path d="M683.54,347.84c.23,3.91-3.17,9-7.53,6.6-4.58-2.71-4.58-10.5,0-13.2,4.37-2.4,7.77,2.69,7.54,6.6Zm0,0c-.35-8.1-8.84-8.31-9,0,.12,8.32,8.62,8.1,9,0Z" style="fill:#ebebeb"></path><path d="M653.06,356.35c-2.78-1-50-2.68-61.24-2.68s-90.44,1.73-95.49,3.47,6.31,31.75,10.74,34S588,399,592.92,399s50.55-7.84,53.86-10.05S657.64,357.93,653.06,356.35Z" style="fill:#263238"></path><path d="M648.3,386.77c-.22.43-.43.81-.63,1.13-19.43,3.57-50.59,9.24-53.66,9.52h-.46c-6.25,0-58.54-4.39-87.17-6.83a9.15,9.15,0,0,1-.93-1.09c29.22,2.49,85.26,7.2,88.47,6.91C597,396.15,629,390.32,648.3,386.77Z" style="fill:#a6a6a6"></path><path d="M649.49,384c-.14.38-.28.74-.43,1.09-19.29,3.17-51.9,8.5-55,8.79h-.56c-6.86,0-61.14-3.91-89.09-6-.2-.33-.4-.68-.61-1,28.69,2.11,86.89,6.31,90.17,6C597,392.57,630.31,387.13,649.49,384Z" style="fill:#a6a6a6"></path><path d="M650.49,381.16l-.35,1c-19.1,2.59-53,7.15-56.13,7.44-.16,0-.44,0-.83,0-8,0-63.15-3-90.3-4.44-.18-.33-.35-.68-.52-1,28.15,1.54,88.23,4.76,91.56,4.46C597.08,388.36,631.49,383.73,650.49,381.16Z" style="fill:#a6a6a6"></path><path d="M651.49,377.9c-.1.35-.21.7-.31,1-18.87,2.27-54,6.48-57.17,6.77-.19,0-.55,0-1.08,0-9,0-65.28-2.48-91.57-3.66l-.45-1c27.49,1.23,89.63,4,93,3.66C597.14,384.42,632.72,380.15,651.49,377.9Z" style="fill:#a6a6a6"></path><path d="M652.33,374.72c-.08.34-.17.68-.26,1-18.36,1.92-53.65,5.59-56.89,5.89-.25,0-.81,0-1.64,0-10.83,0-68.08-1.86-93.51-2.71-.14-.34-.28-.68-.41-1,27,.9,92,3,95.47,2.7C598.35,380.33,634.07,376.61,652.33,374.72Z" style="fill:#a6a6a6"></path><path d="M653.09,371.49c-.08.34-.15.69-.23,1l-58.46,5.31c-.32,0-1.13.05-2.35.05-12.55,0-69.11-1.43-93.24-2.07-.12-.34-.25-.67-.37-1,26.1.68,92.35,2.36,95.86,2Z" style="fill:#a6a6a6"></path><path d="M653.63,368.78c-.06.34-.13.67-.2,1-17.86,1.12-55.69,3.48-59,3.79-.52.05-2.29.07-5,.07-16.76,0-69.63-.77-91.69-1.11-.11-.34-.22-.67-.32-1,25.28.39,93.39,1.39,96.95,1.06C597.68,372.27,635.88,369.88,653.63,368.78Z" style="fill:#a6a6a6"></path><path d="M654.07,366c0,.33-.09.66-.15,1-17.65.71-56.15,2.27-59.52,2.58-1.1.1-8,.14-17.73.14-23.11,0-62.45-.21-80-.32l-.27-1c24.54.15,94.26.52,97.86.19S636.47,366.74,654.07,366Z" style="fill:#a6a6a6"></path><path d="M654.4,363.14l-.09,1c-17.5.3-56.74,1-60.14,1.32-3.73.34-74.28.47-98.35.5-.07-.34-.15-.67-.21-1,23.72,0,94.83-.17,98.47-.5S636.91,363.43,654.4,363.14Z" style="fill:#a6a6a6"></path><path d="M654.5,361.07c-17.43-.15-57.09-.45-60.49-.14-3.75.35-75.26,1.63-98.74,2,0-.34-.09-.67-.13-1,23.22-.42,95.11-1.7,98.78-2,3.5-.33,43.05,0,60.56.13C654.49,360.38,654.5,360.72,654.5,361.07Z" style="fill:#a6a6a6"></path><path d="M654.27,358.27c-17.54-.46-56.86-1.45-60.26-1.14-3.75.34-75.61,1.85-98.91,2.33a6.21,6.21,0,0,1,.18-1c23.37-.49,95-2,98.64-2.33,3.46-.31,42.28.67,60,1.14A4.07,4.07,0,0,1,654.27,358.27Z" style="fill:#a6a6a6"></path><path d="M652.67,424.74H505.79c-3.11,0,12.81-9.63,15.31-9.79s117.68,0,120,0S655.33,424.74,652.67,424.74Z" style="fill:#263238"></path><path d="M686.78,420.78c-1.6.27-18.11.59-20.85,0s-15.42-13.69-15-15.85,19.06-10.79,20.64-11.27,12.71-1.1,13.9,0S688.26,420.54,686.78,420.78Z" style="fill:#263238"></path><path d="M496.44,405.42c2,2.55-15,16.58-22.12,17.64-5.43.8-35.71,1.94-36.81,1.63s-2.3-16.17-1.67-18.59,6.53-11.26,7.84-12.05,29.64,1.63,33.49,2.63S495.55,404.26,496.44,405.42Z" style="fill:#263238"></path><path d="M298.25,287.62l.94-3.23s-11.94-12.8-15.36-14.37-24.43,2.37-25.57,4.22-.69,9.93-.4,11.36,19,4.61,22.11,4.75S298.25,287.62,298.25,287.62Z" style="fill:#37474f"></path><path d="M299.19,284.39l-.94,3.23s7.95,6,8.24,6.34-.2,2.07-.2,2.07h8.06V284.39a19.25,19.25,0,0,1-3.76,1.61C309.43,286.2,299.19,284.39,299.19,284.39Z" style="fill:#37474f"></path><polygon points="229.8 231.32 271.57 234.26 414.94 230.48 418.56 223.91 268.52 227.31 225.82 225.62 229.8 231.32" style="fill:#263238"></polygon><polygon points="268.52 227.31 225.82 225.62 236.31 206.58 264.41 204.31 404.91 206.22 418.56 223.91 268.52 227.31" style="fill:#4CAF50"></polygon><polygon points="264.41 204.31 268.52 227.31 225.82 225.62 236.31 206.58 264.41 204.31" style="fill:#fff;opacity:0.30000000000000004"></polygon><polygon points="367.19 205.71 374.32 224.91 418.56 223.91 404.91 206.22 367.19 205.71" style="fill:#455a64"></polygon><polygon points="374.32 224.91 367.19 205.71 316.43 205.02 322.19 226.09 374.32 224.91" style="fill:#ebebeb"></polygon><path d="M168.4,373.23l-5.21-.09,3.7,14.59c.51,2-.1,3.69-1.38,3.68s-2.71-1.71-3.23-3.73L152,347.94c-.54-2.09.14-3.68,1.46-3.65h.05l7.83.2c5.24.14,11,6.67,12.86,14.63S173.44,373.31,168.4,373.23Zm-7.11-7.56,5.27.1c2.48.05,3.69-3,2.8-6.75-.93-3.86-3.69-7-6.22-7.08l-5.36-.12C159.18,357.36,159.89,360.13,161.29,365.67Z" style="fill:#263238"></path><path d="M200.38,351.23a39.78,39.78,0,0,1,7.68,16.85c1.27,6.55.69,12.45-1,16.69s-4.66,7-8.46,7c-4,0-8.22-2.9-11.75-7.24a42.74,42.74,0,0,1-8.06-17c-1.54-6.62-1.28-12.49.4-16.81s5-7,9.19-6.86C192.47,344,196.92,346.87,200.38,351.23ZM203.19,368a28,28,0,0,0-5.29-11.67c-2.43-3-5.24-4.81-7.86-4.87-2.8-.07-4.86,1.63-6,4.56s-1.33,7.08-.31,11.62a29.08,29.08,0,0,0,5.49,11.65c2.43,3,5.16,4.86,7.83,4.89,2.51,0,4.46-1.75,5.63-4.69A21.3,21.3,0,0,0,203.19,368Z" style="fill:#263238"></path><path d="M218.33,388.34q-3.65-19.48-7.27-39c-.37-2,.38-3.61,1.74-3.57s2.77,1.71,3.12,3.69q3.18,17.6,6.35,35.2l11.32.15c1.22,0,2.57,1.67,2.9,3.7s-.49,3.6-1.69,3.58L221.4,392h-.12C220,392,218.7,390.32,218.33,388.34Z" style="fill:#263238"></path><path d="M234.51,350c-.31-2,.5-3.58,1.86-3.55s2.7,1.64,3,3.66q2.91,19.29,5.81,38.58c.3,2-.54,3.59-1.78,3.57s-2.52-1.59-2.84-3.62Z" style="fill:#263238"></path><path d="M247.15,368.8c-1.41-9,1.82-23,12.8-23.08,3.75,0,7.63,2.08,10.74,5.31a5.43,5.43,0,0,1,1,5.19,2,2,0,0,1-3.4.63,10.47,10.47,0,0,0-7.44-3.73,8.18,8.18,0,0,0-7.24,4.5,18.4,18.4,0,0,0-1.6,11.27,23.87,23.87,0,0,0,4.63,11.39c2.31,2.88,5.26,4.74,8.14,4.78a7.36,7.36,0,0,0,6.32-3.48c.84-1.08,2.5-.78,3.44.77a5.23,5.23,0,0,1,.15,5.16c-2.27,3.14-5.56,5.17-9,4.95C255.07,391.78,248.67,378.54,247.15,368.8Z" style="fill:#263238"></path><path d="M281.7,389.08q-1.92-19-3.83-38.06c-.2-2,.71-3.53,2.07-3.49h.13l14.27.36c1.27,0,2.53,1.61,2.68,3.59s-.86,3.56-2.13,3.53l-11.81-.27c.44,4.71.66,7.07,1.11,11.79l10,.19c1.29,0,2.49,1.71,2.63,3.57s-.78,3.58-2.06,3.56l-9.89-.17c.44,4.74.66,7.11,1.11,11.85l11.32.15c1.21,0,2.42,1.63,2.57,3.62s-.81,3.51-2,3.5l-13.4-.15a.08.08,0,0,1-.09-.06l0,.06C283,392.64,281.89,391,281.7,389.08Z" style="fill:#263238"></path><path d="M324.24,333.69l-16.83-3.28h-.05l-70.57-2.64-70.59-2.27h.08l-43.57-9.94,43.36,10.5h.08l70.57,2.6,70.6,2.25h-.06S311.51,331.38,324.24,333.69Z" style="fill:#fff"></path></g><g id="freepik--Character--inject-64"><path d="M268.29,459.73c-2.13.67-64.29-.68-66.56-2.19-.88-.56,3.19-59.45,3.19-59.45l39.43.75-3.23,39.39s22.94,10.87,25.27,12.8S270.42,459.07,268.29,459.73Z" style="fill:#ad6359"></path><path d="M268.29,459.73c-2.13.67-64.29-.68-66.56-2.19-.41-.26.24-12.89,1.05-26.44l38.9.33-.56,6.8s22.94,10.87,25.27,12.8S270.42,459.07,268.29,459.73Z" style="fill:#ebebeb"></path><path d="M269,459.79c-1.15.37-17,.33-33.9,0-3.39-.07-6.76-.15-10-.24-12-.33-22.93-.86-23.86-1.46s.85-21.24.84-21.36l39.57.08,0,.7s22.8,11.18,25.25,13.18S271.26,459.08,269,459.79Z" style="fill:#455a64"></path><path d="M268.35,457.32c-10.7-.4-52.54-1-63.14-.59-.09,0-.09.06,0,.06,10.59.63,52.43.89,63.13.71C268.57,457.49,268.57,457.33,268.35,457.32Z" style="fill:#263238"></path><path d="M246.28,437c-4.21-.84-9.37-.26-12.62,2.7-.13.11,0,.29.17.25a59.07,59.07,0,0,1,12.42-2.42A.27.27,0,0,0,246.28,437Z" style="fill:#263238"></path><path d="M249.29,438.85c-4.2-.84-9.36-.26-12.62,2.7-.12.11,0,.29.18.25a58.83,58.83,0,0,1,12.42-2.42A.27.27,0,0,0,249.29,438.85Z" style="fill:#263238"></path><path d="M252.31,440.72c-4.2-.84-9.36-.26-12.62,2.7-.13.11,0,.29.18.25a58.86,58.86,0,0,1,12.41-2.42A.27.27,0,0,0,252.31,440.72Z" style="fill:#263238"></path><path d="M239.05,459.85l-3.91-.07c-3.39-.07-6.76-.15-10-.24-12-.33-22.93-.86-23.86-1.46s.85-21.24.84-21.36h3.76Z" style="opacity:0.1"></path><path d="M243.07,435.76l-41.47.32s8.34-100.54,8-102.32c-.41-2.29-27.87-110-27.87-110h36.94s29.13,100.37,30.18,110C250.56,349.44,243.07,435.76,243.07,435.76Z" style="fill:#263238"></path><path d="M205.75,428.75c2.29-.17,4.6-.14,6.89-.17s4.59,0,6.89,0c4.59.05,9.18.12,13.77.25,1.25,0,2.51.07,3.76.13s2.68.29,4,.34a.08.08,0,0,1,0,.16c-1.13,0-2.26.18-3.39.22s-2.34,0-3.51,0c-2.29,0-4.59,0-6.88,0-4.59,0-9.18-.1-13.77-.29-2.59-.11-5.2-.14-7.78-.4A.12.12,0,1,1,205.75,428.75Z" style="fill:#37474f"></path><path d="M189.88,232.49c3.3,11.7,6.32,23.51,9.29,35.31s5.91,23.61,8.85,35.42q2.19,8.85,4.4,17.71c1.43,5.75,3.09,11.53,3.45,17.47s-.41,12.13-.92,18.14-1,12.09-1.55,18.13c-1.06,12.09-3,33.72-4.31,45.79l-.48,4.53a.1.1,0,0,1-.2,0c.8-12.09,2.56-33.71,3.52-45.8q.72-9.07,1.48-18.13c.5-6,1.2-12.09,1.39-18.14a64.56,64.56,0,0,0-2.4-17.85q-2.16-8.67-4.34-17.34-4.44-17.7-8.84-35.42c-3.29-13.22-6.56-26.47-9.45-39.78A.06.06,0,1,1,189.88,232.49Z" style="fill:#37474f"></path><path d="M181.75,223.79s11.78,46.2,20,78.72l15.71-78.72Z" style="fill:#37474f"></path><path d="M220.8,459.21c-2.12.7-64.3.19-66.59-1.29-.88-.55,2.39-59.49,2.39-59.49l37.76.23-1,39.42s23.08,10.56,25.43,12.46S222.92,458.53,220.8,459.21Z" style="fill:#ad6359"></path><path d="M220.8,459.21c-2.12.7-64.29.19-66.58-1.29-.42-.25.06-12.89.69-26.45l38.9-.2-.47,6.81s23.09,10.56,25.44,12.46S222.92,458.52,220.8,459.21Z" style="fill:#ebebeb"></path><path d="M221.55,459.26c-1.14.38-17,.56-33.9.45-3.39,0-6.76-.06-10-.1-12-.17-22.94-.55-23.87-1.14s.55-21.25.54-21.37l39.57-.46v.7s23,10.87,25.43,12.84S223.76,458.52,221.55,459.26Z" style="fill:#455a64"></path><path d="M220.82,456.8c-10.7-.25-52.54-.3-63.14.26-.08,0-.08.06,0,.07,10.61.48,52.44.18,63.14-.15C221.05,457,221.05,456.81,220.82,456.8Z" style="fill:#263238"></path><path d="M198.48,436.76c-4.21-.78-9.36-.13-12.58,2.87-.13.11,0,.29.18.25a58.63,58.63,0,0,1,12.38-2.59A.27.27,0,0,0,198.48,436.76Z" style="fill:#263238"></path><path d="M201.52,438.59c-4.21-.78-9.36-.13-12.58,2.87-.12.12,0,.29.18.25a59.27,59.27,0,0,1,12.38-2.59A.27.27,0,0,0,201.52,438.59Z" style="fill:#263238"></path><path d="M204.56,440.42c-4.21-.78-9.36-.13-12.58,2.87-.12.12,0,.29.18.25A59.49,59.49,0,0,1,204.55,441,.27.27,0,0,0,204.56,440.42Z" style="fill:#263238"></path><path d="M217.5,223.78s-1.08,17.66-5.3,31.61c-.34,1.15-.7,2.29-1.1,3.37a66.12,66.12,0,0,0-10.71,5.34s-2.66,67.57-2.61,71.76c.17,15.7-2.46,99.89-2.46,99.89l-41.81-.4S159,341.19,159,335.44c0-5.57,2.66-40.65,5-71.07,0,0-3.47-9.71-3.09-14.62.93-11.9,6.27-26,6.27-26Z" style="fill:#263238"></path><path d="M209,247.5l.45-2.93c.27-1.79.64-3.57,1-5.35.71-4.05,1.45-8.11,2.35-12.12,0-.1.19-.08.18,0-.16,1.62-.35,3.24-.58,4.85s-.39,3.24-.61,4.85c-.45,3.2-.9,6.4-1.44,9.58-.21,1.23-1,3.43.79,3.81,1.39.3,2.42-1.07,2.83-2.22a27.81,27.81,0,0,0,.94-4.42c.29-1.61.54-3.23.77-4.86.5-3.53,1.05-7.06,1.62-10.58,0-.1.18-.07.18,0-.12,3.63-.31,7.22-.78,10.83-.23,1.72-.49,3.44-.78,5.15a18.17,18.17,0,0,1-1.18,4.79,3.9,3.9,0,0,1-2.93,2.35h-.08a.1.1,0,0,1,0,.1c0,.57,0,1.16-.06,1.73s-.18,1.13-.28,1.68a12,12,0,0,1-.44,1.69,7.28,7.28,0,0,1-.31.77c-.13.26-.31.47-.46.71s-.18,0-.19-.06h0c0-.09,0-.19,0-.28v-.05h0a4.19,4.19,0,0,1,0-.5c0-.28.1-.55.16-.82.12-.55.27-1.09.42-1.63s.26-1.08.4-1.62.32-1.1.45-1.66a.11.11,0,0,1,0-.05,2.54,2.54,0,0,1-2.46-1.55A4.36,4.36,0,0,1,209,247.5Z" style="fill:#37474f"></path><path d="M197.23,265.45A30.59,30.59,0,0,1,200.9,263a35.36,35.36,0,0,1,4.19-2.17c2.82-1.23,5.73-2.07,8.65-3,.08,0,.14.12.06.15-2.83,1.12-5.53,2.61-8.26,3.95-1.34.65-2.7,1.28-4.06,1.88s-2.74,1.31-4.14,1.83C197.23,265.68,197.15,265.52,197.23,265.45Z" style="fill:#37474f"></path><path d="M175.2,240.84a24.35,24.35,0,0,0,5.88-.79c.89-.23,1.76-.51,2.63-.8a6.83,6.83,0,0,0,2.38-1.19c1.33-1.15,2-3,2.54-4.58a44.58,44.58,0,0,0,1.54-5.57c0-.09.16-.06.16,0a21.8,21.8,0,0,1-.8,6.32,9.76,9.76,0,0,1-2.54,4.91,10,10,0,0,1-5.39,2,25,25,0,0,1-6.41-.09A.11.11,0,0,1,175.2,240.84Z" style="fill:#37474f"></path><path d="M156.49,427.8c2.29-.16,4.6-.14,6.89-.17s4.59,0,6.89,0c4.59.05,9.18.11,13.77.24,1.25,0,2.51.08,3.76.14s2.68.29,4,.34a.08.08,0,0,1,0,.16c-1.13,0-2.26.18-3.39.21s-2.34,0-3.51,0l-6.88,0c-4.59,0-9.19-.1-13.77-.29-2.59-.11-5.21-.14-7.79-.4A.12.12,0,0,1,156.49,427.8Z" style="fill:#37474f"></path><path d="M161.25,422.72h0a.47.47,0,0,1-.45-.5l8.95-159c-.11-.67-2.6-9.12-2.82-13.44-.23-4.56,4.49-22.34,4.69-23.1a.48.48,0,1,1,.92.25c-.05.18-4.88,18.39-4.66,22.81s2.8,13.29,2.82,13.37-9,159.17-9,159.17A.49.49,0,0,1,161.25,422.72Z" style="fill:#37474f"></path><path d="M205.48,167.5c10.9,9.61,45.14,54.84,47.78,57.89,3.49,4-19.41,16.92-21.5,13.92-1.35-1.95-30.92-53.54-33.89-66.57C195.22,161.11,201.29,163.81,205.48,167.5Z" style="fill:#ad6359"></path><path d="M230.38,236.72c.85,2.32,3.73,12.16,5.76,13.39s12.62,1,18,1,6.39-1.49,6.31-3.33-11.3-2.19-11.3-2.19,15,4.29,18.74,5,12.44,2.89,13.7-.23c.56-1.41-1.81-2.83-1.81-2.83s3.64,1.06,4.22-.75c.65-2.06-2.24-3.19-2.24-3.19s2.28.45,2.33-1.22c.12-3.76-14.13-5.6-14.13-5.6S280.83,242,281.18,239c.48-4.24-21.22-9-23.54-10.81s-5.8-4.54-5.8-4.54Z" style="fill:#ad6359"></path><path d="M260.33,248.67a1.67,1.67,0,0,0-.51-1.43,4.76,4.76,0,0,0-1.3-.84,16.68,16.68,0,0,0-3.07-1c-2.1-.54-4.26-.92-6.41-1.47a25.81,25.81,0,0,1,6.6.74,12.18,12.18,0,0,1,3.15,1.2A4.42,4.42,0,0,1,260.1,247,1.73,1.73,0,0,1,260.33,248.67Z" style="fill:#263238"></path><path d="M279.74,247.48c-1.55-.38-3.06-.81-4.58-1.25s-3-.9-4.53-1.36l-4.51-1.41c-1.51-.47-3-.94-4.53-1.39a33.72,33.72,0,0,1,4.68.83c1.55.35,3.07.8,4.58,1.25s3,1,4.49,1.53S278.3,246.81,279.74,247.48Z" style="fill:#263238"></path><path d="M265.21,238.33a30.1,30.1,0,0,1,4.32.59,40.82,40.82,0,0,1,4.22,1.09,37.23,37.23,0,0,1,4.09,1.53,29.62,29.62,0,0,1,3.88,2c-1.38-.48-2.72-1-4.09-1.46s-2.72-.93-4.1-1.35-2.75-.84-4.14-1.25S266.61,238.71,265.21,238.33Z" style="fill:#263238"></path><path d="M267.41,234.75a27,27,0,0,1,6.88,1.45,26.4,26.4,0,0,1,6.32,3.07c-2.21-.79-4.36-1.62-6.56-2.36S269.65,235.47,267.41,234.75Z" style="fill:#263238"></path><path d="M250.93,221.31,228,236.2s-23.75-43-30.44-61c-4-10.86-.2-16,10.43-5.72C219.38,180.43,250.93,221.31,250.93,221.31Z" style="fill:#455a64"></path><path d="M226.63,230.16a24.3,24.3,0,0,1,2.34-1.68c.7-.5,1.39-1,2.1-1.5,1.54-1.07,3.07-2.15,4.62-3.21s3.07-2.12,4.62-3.17,3.06-2.13,4.66-3.08c.06,0,.12,0,.07.1-1.38,1.25-2.9,2.35-4.38,3.47s-3,2.17-4.48,3.21-3.1,2.08-4.68,3.09c-.76.48-1.54.94-2.31,1.4a20.19,20.19,0,0,1-2.51,1.45A0,0,0,0,1,226.63,230.16Z" style="fill:#263238"></path><path d="M247,223.84,228,236.2s-23.74-43-30.43-61c-2.55-6.83-2-11.39,1.45-11.28Z" style="opacity:0.1"></path><path d="M218.69,223.79l1.63-4.61-3.68-13.46s5.24-6.35,1.73-13.71c-1.78-3.74-13-24-19.4-28.55-6.05-4.29-13.49,0-16.24,3.79-7.52,10.43-12.73,20-16.58,51.48-.2,1.64,1,5.06,1,5.06Z" style="fill:#455a64"></path><path d="M207.37,203a56.21,56.21,0,0,0-8.13,1.51c-1.32.36-2.62.79-3.91,1.24-.64.23-1.29.43-1.94.64a8.81,8.81,0,0,1-2.1.43.05.05,0,0,0,0,.1,13.65,13.65,0,0,0,2-.08,13.93,13.93,0,0,0,1.92-.4c1.34-.36,2.67-.78,4-1.15,2.7-.75,5.4-1.5,8.16-2.06A.12.12,0,0,0,207.37,203Z" style="fill:#263238"></path><path d="M214.2,205.3a61.88,61.88,0,0,0-6.81-.19c-1.14,0-2.27.14-3.4.27-.54.06-1.08.14-1.62.22s-1.17.25-1.76.33c-.06,0-.06.1,0,.1.56-.06,1.14,0,1.7-.05l1.7-.08,3.4-.15c2.27-.12,4.53-.22,6.8-.26C214.33,205.49,214.32,205.31,214.2,205.3Z" style="fill:#263238"></path><polygon points="196.76 177.63 198.96 172.87 202.53 176.3 201.49 179.9 198.15 180.13 196.76 177.63" style="fill:#263238"></polygon><polygon points="198.15 180.13 196.67 212.18 202.86 222.66 209.17 212.18 201.49 179.9 198.15 180.13" style="fill:#263238"></polygon><path d="M195.24,185.14l-11.88-.34.21-.18-1,10.17-.11-.23,4.72,3.24-.21,0,7.17-2.45-.12.15,1.2-10.33Zm0,0c-.2,2.58-.62,7.78-.84,10.36,0,.12,0,.11-.12.16l-7.13,2.54-.11,0-.1-.06L182.21,195l-.13-.08,0-.15,1.08-10.16,0-.19c4.06.22,8.1.5,12,.75Z" style="fill:#000102;opacity:0.1"></path><path d="M205.94,184.76c2.3-.77,4.65-1.61,7-2.39,1.05,3.21,2,6.45,3,9.68,0,.09,0,.08,0,.19L213.91,196l-.09.16-.18,0-4.81-1.4c-.1,0-.1,0-.14-.14-1-3.3-1.86-6.59-2.75-9.78Zm0,0c1.08,3.29,2.14,6.48,3.15,9.66l-.14-.14,4.82,1.35-.27.11,2.07-3.74,0,.19c-1-3.19-1.92-6.37-2.83-9.57l.2.11c-2.27.69-4.61,1.33-7,2Z" style="fill:#000102;opacity:0.1"></path><polygon points="205.27 183.14 212 181.03 211.2 179.63 204.95 181.54 205.27 183.14" style="fill:#fff"></polygon><path d="M191.25,179.08a20.37,20.37,0,0,1-.43,3.6c-.29.75-2.41,1.07-2.41,1.07s-1.86-.57-2-1.15a22.92,22.92,0,0,1,.28-3.82,3.1,3.1,0,0,0,2.59-1A2.16,2.16,0,0,0,191.25,179.08Z" style="fill:#4CAF50"></path><path d="M193.1,156.94a1.55,1.55,0,0,1,.61,1.62,1.57,1.57,0,0,1-1.76,1.19,1.64,1.64,0,0,1,0,.66,1.73,1.73,0,0,1-1.9,1.32,1.29,1.29,0,0,1,0,.55,1.55,1.55,0,0,1-1.87,1.17,1.58,1.58,0,0,1-.88-.56,1.56,1.56,0,0,1-2.43.76.58.58,0,0,1,0,.14,1.56,1.56,0,0,1-3,.25,1.56,1.56,0,0,1-1.76.86,1.54,1.54,0,0,1-1.15-1.09,1.7,1.7,0,0,1-1.14.12,1.67,1.67,0,0,1-1.07-.78,1.77,1.77,0,0,1-1.3.22,1.73,1.73,0,0,1-1.33-1.59,1.54,1.54,0,0,1-1.81-1.68,1.77,1.77,0,0,1-.76,0,1.72,1.72,0,0,1-1.29-2.07,1.6,1.6,0,0,1,.22-.52.83.83,0,0,1-.27,0,1.57,1.57,0,0,1-1.18-1.87,1.62,1.62,0,0,1,.41-.75,1.71,1.71,0,0,1-1.13-2,1.66,1.66,0,0,1,.46-.83,1.71,1.71,0,0,1-.73-1.82A1.69,1.69,0,0,1,169,149a1.54,1.54,0,0,1-.23-1.24,1.51,1.51,0,0,1,.77-1,1.71,1.71,0,0,1,1.18-2.81,1.58,1.58,0,0,1,0-.75,1.56,1.56,0,0,1,1.67-1.21,1.5,1.5,0,0,1,0-.73,1.72,1.72,0,0,1,2.06-1.29,1.74,1.74,0,0,1,.38.14,1.45,1.45,0,0,1,0-.28,1.73,1.73,0,0,1,2.06-1.29,1.76,1.76,0,0,1,.4.16,1.65,1.65,0,0,1,0-.49,1.72,1.72,0,0,1,3.16-.49,1.71,1.71,0,0,1,1.62-.48,1.67,1.67,0,0,1,1,.73,1.57,1.57,0,0,1,2.86.24,1.56,1.56,0,0,1,1.3-.27,1.54,1.54,0,0,1,1.19,1.36,1.69,1.69,0,0,1,1.37-.26,1.72,1.72,0,0,1,1.34,1.71,1.84,1.84,0,0,1,.57,0,1.56,1.56,0,0,1,1.16,1.88,1.46,1.46,0,0,1-.22.51l.1,0a1.72,1.72,0,0,1,1.29,2.07,1.58,1.58,0,0,1-.18.46,1.43,1.43,0,0,1,.41,0,1.56,1.56,0,0,1,.47,2.85,1.57,1.57,0,0,1,.48,1.52,1.54,1.54,0,0,1-.68,1,1.71,1.71,0,0,1-.67,3.19,1.53,1.53,0,0,1,.43,1.46A1.56,1.56,0,0,1,193.1,156.94Z" style="fill:#263238"></path><path d="M189.57,164.57c.2,1,6.06,8.36,10.58,6.8,1.68-.58.67-6.3.67-6.3l2.42-9.18-11.33-7.81S189.49,164.13,189.57,164.57Z" style="fill:#ad6359"></path><path d="M191,154.08A18.12,18.12,0,0,0,201,164.56l2.29-8.67-11.33-7.81S191.51,150.79,191,154.08Z" style="fill:#263238"></path><path d="M213.54,140.75c2.35,15.37-6.59,18.51-9.9,19-3,.46-13.31,1.63-17.23-13.41s2.47-21,9.3-22.4S211.19,125.38,213.54,140.75Z" style="fill:#ad6359"></path><path d="M209,137.48c-.36,0-.71,0-1.07,0a1.81,1.81,0,0,1-1.09-.26.56.56,0,0,1-.11-.66A1.37,1.37,0,0,1,208,136a2,2,0,0,1,1.37.49A.59.59,0,0,1,209,137.48Z" style="fill:#263238"></path><path d="M198.4,139.26c.35-.11.66-.26,1-.4a1.73,1.73,0,0,0,.94-.59.56.56,0,0,0-.11-.67,1.38,1.38,0,0,0-1.39-.09,2,2,0,0,0-1.13.91A.6.6,0,0,0,198.4,139.26Z" style="fill:#263238"></path><path d="M201.24,142.76s-.07.07-.06.11c.23,1,.33,2.25-.55,2.78,0,0,0,.07,0,.06C201.77,145.32,201.63,143.7,201.24,142.76Z" style="fill:#263238"></path><path d="M200.11,141.85c-1.7.2-1.19,3.58.39,3.4S201.53,141.69,200.11,141.85Z" style="fill:#263238"></path><path d="M199.47,142.13c-.27.24-.5.62-.85.71s-.77-.2-1.1-.5c0,0-.05,0-.05,0,.09.65.44,1.27,1.15,1.26s1-.65,1.08-1.32C199.71,142.2,199.58,142,199.47,142.13Z" style="fill:#263238"></path><path d="M207.62,141.64s.08,0,.09.08c.12,1.05.43,2.24,1.43,2.45,0,0,0,.06,0,.06C208,144.24,207.56,142.66,207.62,141.64Z" style="fill:#263238"></path><path d="M208.39,140.41c1.67-.37,2.29,3,.75,3.34S207,140.72,208.39,140.41Z" style="fill:#263238"></path><path d="M209.13,140.5c.3.13.63.41,1,.37s.57-.46.74-.85c0,0,.05,0,.06,0,.14.64.05,1.34-.54,1.58s-1.06-.26-1.33-.87C209,140.65,209,140.45,209.13,140.5Z" style="fill:#263238"></path><path d="M203.26,151.43c.27.23.54.56.93.57a3,3,0,0,0,1.12-.34,0,0,0,0,1,0,.05,1.42,1.42,0,0,1-1.3.66,1.13,1.13,0,0,1-.89-.89C203.14,151.42,203.22,151.39,203.26,151.43Z" style="fill:#263238"></path><path d="M207.2,146.9s.4,1.55.49,2.29c0,.07-.17.12-.42.16,0,0,0,0,0,0a3.55,3.55,0,0,1-3.58-.91.08.08,0,0,1,.1-.12,5.33,5.33,0,0,0,3.32.54c0-.21-.77-2.62-.66-2.64a6.7,6.7,0,0,1,1.73.18c-.74-3.24-2-6.34-2.69-9.58a.1.1,0,0,1,.19-.07A53.57,53.57,0,0,1,209,147C209.1,147.37,207.51,147,207.2,146.9Z" style="fill:#263238"></path><path d="M207,149a4.13,4.13,0,0,1-1.36,1.6,1.81,1.81,0,0,1-1.1.3c-.86,0-1-.77-1-1.44a4.38,4.38,0,0,1,.16-1A5.38,5.38,0,0,0,207,149Z" style="fill:#263238"></path><path d="M205.67,150.61a1.81,1.81,0,0,1-1.1.3c-.86,0-1-.77-1-1.44A2,2,0,0,1,205.67,150.61Z" style="fill:#ff9abb"></path><path d="M202.26,126.4a6.94,6.94,0,0,1,.17,4.07c-1.34,3.63-5.61,3.09-6.91,4.6s-.51,4.05-1.61,5.45c-1.52,1.94-3.87,1.45-4,2.68s-.61,5.14-2.1,5.77S177,124.69,197,123.7c0,0,2.65-1.37,7.09.41,4.92,2,7.66,9.53,7.66,9.53s-.11-.1-.85-.64c-1-.77-1.48-1.53-2.24-2-1.19-.77-1.77-.38-3-1.13A13.13,13.13,0,0,1,202.26,126.4Z" style="fill:#263238"></path><path d="M201.85,125.32a13.9,13.9,0,0,1,.87,3,5.7,5.7,0,0,1-.16,3,4.12,4.12,0,0,1-2.13,2c-.92.44-2,.63-3,1.14a3,3,0,0,0-1.24,1.13,4.1,4.1,0,0,0-.45,1.59,5.63,5.63,0,0,1-.86,2.88,3.42,3.42,0,0,1-2.58,1.37c-1,.1-2.14-.09-3.09.44a7.38,7.38,0,0,1,3.11-.19,3.8,3.8,0,0,0,2.86-1.38,5.6,5.6,0,0,0,1-3.05,3.92,3.92,0,0,1,.41-1.42,2.6,2.6,0,0,1,1.08-.93c.88-.48,1.93-.69,2.9-1.17a5.09,5.09,0,0,0,1.35-.91,3.26,3.26,0,0,0,.95-1.36,6,6,0,0,0,0-3.21A13.62,13.62,0,0,0,201.85,125.32Z" style="fill:#263238"></path><path d="M202.32,126.2a10.8,10.8,0,0,0,1.22,2.68,5.11,5.11,0,0,0,2.2,2,6.9,6.9,0,0,0,1.43.41,2.4,2.4,0,0,1,1.15.63,6.73,6.73,0,0,0,1,1.11,3.14,3.14,0,0,0,1.33.63,3.71,3.71,0,0,1-1.17-.81,7,7,0,0,1-.84-1.17,2.61,2.61,0,0,0-1.32-.84,8,8,0,0,1-1.35-.41,5.42,5.42,0,0,1-2.08-1.82A21.15,21.15,0,0,1,202.32,126.2Z" style="fill:#263238"></path><path d="M189.52,146.93s-3.94-4.42-6-3,1.31,8.14,4,8.8a2.63,2.63,0,0,0,3.33-1.82Z" style="fill:#ad6359"></path><path d="M184.55,145.86a0,0,0,0,0,0,.07c1.89.52,3,2.08,3.9,3.73a1.45,1.45,0,0,0-2.2-.14c-.05,0,0,.11.06.09a1.61,1.61,0,0,1,1.83.35,7.64,7.64,0,0,1,1,1.33c.11.15.39,0,.3-.15,0,0,0,0,0,0C189.2,148.8,187,145.8,184.55,145.86Z" style="fill:#263238"></path><path d="M178.82,136.69c.44.53,2.83-.2,3.19-.13,0,0,2,1.19,2,1.19s8.74-9.54,11-10.63,13.19-1.88,13.19-1.88l.56-5.32s4.21-3.85,4.15-6.25c0-1.44-12.22-3.61-21,.87C180.83,120.22,176.38,133.73,178.82,136.69Z" style="fill:#37474f"></path><path d="M182,136.56s2,1.19,2,1.19,8.73-9.54,11-10.62,13.19-1.89,13.19-1.89.57-4.9.56-5.32c0,0-12.78.11-16.39,3.48S183.73,131.8,182,136.56Z" style="fill:#263238"></path><path d="M204.87,119.63a25.94,25.94,0,0,1-.24,3.42c-.19.75-1.93,1.38-1.93,1.38s-1.85-.32-2.08-.86a22.08,22.08,0,0,1-.18-3.69,3,3,0,0,0,2.36-1.27A2.1,2.1,0,0,0,204.87,119.63Z" style="fill:#4CAF50"></path><path d="M183.66,138s5.52-2.88,9.19-4.58c4.09-1.89,14.05-3.85,16.71-3.95,1.7-.06,7.07-5.59,6.21-6.12-2.85-1.76-17.94,1.83-21,3.27C190.06,128.88,183.66,138,183.66,138Z" style="fill:#37474f"></path><path d="M185.44,135a1,1,0,0,1-1,1.09,1,1,0,1,1-.1-2.07A1,1,0,0,1,185.44,135Z" style="fill:#ebebeb"></path><path d="M201.18,164.23l-2.52,7.13-9.07-8.42-2.32,2.94s9.11,13.63,9.14,13l2.6-6.14,4.34,4-.82-10.49Z" style="fill:#455a64"></path><path d="M203.24,171.52c-.2-1.73-.34-3.47-.62-5.18,0-.07-.1-.09-.11,0-.27,1.69.5,8.29.56,9.88l0,0c-.18-.17-4-3.5-4-3.45-.58,1-2.49,5.46-2.62,5.86-1.44-2.16-6.95-10-8.63-12.06,0-.05-.14,0-.1.07,1.29,2.3,8.59,12.89,8.69,12.85a67.62,67.62,0,0,0,2.71-6.49c.66.73,4.55,4.51,4.55,4.25A57,57,0,0,0,203.24,171.52Z" style="fill:#263238"></path><path d="M181.51,166.91c-18.43,14.49-36.55,39.51-36.68,53.51-.14,13.82,4.68,12.48,6,12.39,8.35-.55,28-39,34-54.68S186.07,163.33,181.51,166.91Z" style="fill:#ad6359"></path><path d="M181.51,166.91c-18.43,14.49-36.55,39.51-36.68,53.51-.14,13.82,4.68,12.48,6,12.39,8.35-.55,28-39,34-54.68S186.07,163.33,181.51,166.91Z" style="fill:#455a64"></path><path d="M161.11,223.23c4.7-7.44,8.93-15.18,13.08-22.94s8.24-15.57,11.29-23.83c-2.48,8.47-6.58,16.38-10.63,24.19a202,202,0,0,1-13.74,22.58Z" style="fill:#263238"></path><path d="M186,178.49a6.3,6.3,0,0,1-2.63,3.83,41.86,41.86,0,0,1,2.63-3.83Z" style="fill:#263238"></path><rect x="186.4" y="185.95" width="49.07" height="37.69" transform="translate(-16 391.7) rotate(-83.63)" style="fill:#4CAF50"></rect><rect x="187.08" y="186.7" width="49.07" height="36.33" transform="translate(-15.47 392.44) rotate(-83.63)" style="opacity:0.4"></rect><rect x="204.55" y="177.87" width="17.86" height="5.41" transform="translate(405.84 383.51) rotate(-173.69)" style="fill:#c7c7c7"></rect><polygon points="208.93 177.35 211.12 177.6 211.4 175.12 216.71 175.7 216.43 178.18 218.62 178.43 219.12 173.91 209.4 172.83 208.93 177.35" style="fill:#c7c7c7"></polygon><path d="M148.62,232.5c6,1.73,14.3-1.92,36.14-13.49,3-1.6-2.54-26-5.85-24.43-4.18,1.94-20,10.39-21,11.16C148.79,212.18,144.55,231.33,148.62,232.5Z" style="fill:#ad6359"></path><path d="M170.84,200.54s6.77-7.08,11.48-9.71a34.76,34.76,0,0,1,16.09-4c6.05,0,20.68,4.13,20.23,8.55-.42,4-15.16-1-15.16-1s15.87,2.6,14.48,7.33-18.17-2-18.17-2,16.25,3,14.05,7.69c-1.66,3.52-17.21-1.75-17.21-1.75s14,2.71,12.39,6.4c-1.71,4.07-16.37.11-16.37.11-5.53,8.71-11.73,10.59-16.3,11.41C175.25,223.81,170.84,200.54,170.84,200.54Z" style="fill:#ad6359"></path><path d="M198,193.19c1.88.24,3.78.47,5.63.88s3.68.87,5.48,1.45a32.42,32.42,0,0,1,6.8,2.9,69.52,69.52,0,0,0-12.41-3.85c-1.85-.4-3.67-.9-5.52-1.31C198,193.25,198,193.19,198,193.19Z" style="fill:#263238"></path><path d="M196.46,199.84c2.38.41,4.76.73,7.13,1.24s4.54,1.2,6.85,1.88c.18,0,.09.13-.09.08-2.34-.58-4.54-.93-6.88-1.48s-4.67-1.2-7-1.66C196.41,199.89,196.42,199.83,196.46,199.84Z" style="fill:#263238"></path><path d="M194.08,205.3A54,54,0,0,1,204.83,208c.17.06,0,.15-.13.1-3.56-1-6.34-1.77-10.64-2.7C194,205.41,194,205.29,194.08,205.3Z" style="fill:#263238"></path><path d="M171.9,197.3l6.7,28.61s-26.95,9.89-30.56,6.44c-2.87-2.74-.85-17.56,6.31-24.08C159.66,203.45,171.9,197.3,171.9,197.3Z" style="fill:#455a64"></path><path d="M167.09,203.52a26,26,0,0,1,.73,2.79c.21.83.44,1.66.64,2.5.44,1.82.89,3.64,1.32,5.46s.87,3.64,1.29,5.46.88,3.62,1.19,5.46c0,.07-.09.09-.12,0-.66-1.73-1.14-3.55-1.65-5.34s-1-3.54-1.38-5.33-.82-3.64-1.19-5.48c-.18-.88-.32-1.77-.47-2.66a21.27,21.27,0,0,1-.45-2.86A0,0,0,0,1,167.09,203.52Z" style="fill:#263238"></path><path d="M177.93,223.38c.33,1,.64,1.91.91,2.87l-.2.08a92.34,92.34,0,0,1-13.25,3.8c2.13-.9,4.3-1.65,6.49-2.36s4.39-1.33,6.63-1.86l-.15.26c-.18-.92-.31-1.86-.43-2.79Z" style="fill:#263238"></path><path d="M149.06,218.82a30.48,30.48,0,0,1,5.72-10.69,18.13,18.13,0,0,1,3.2-2.57c4.61-3.13,9.37-6,14.17-8.79a1.72,1.72,0,0,1-.1,1.28,1.53,1.53,0,0,1-.47-.69l.49.22C166.79,201,160,204.5,155.2,208.52a33.74,33.74,0,0,0-6.14,10.3Z" style="fill:#263238"></path></g></svg>